<svg width="155" height="43" viewBox="0 0 155 43" fill="none" xmlns="http://www.w3.org/2000/svg">
<path d="M21.4997 43C9.631 42.9941 -0.00450423 33.3883 1.57963e-06 21.4887C0.00450739 9.60894 9.64071 -0.0103894 21.5073 8.42147e-06C33.3943 0.0104062 43.0042 9.63597 43 21.5151C42.9958 33.3218 33.4265 42.9917 21.4993 42.9997L21.4997 43ZM0.956273 21.4922C0.948302 32.8424 10.1578 42.0348 21.4844 42.0438C32.8155 42.0528 42.0281 32.8715 42.0462 21.5369C42.0642 10.1812 32.881 0.971854 21.5232 0.955217C10.1727 0.938581 0.967365 10.1306 0.956273 21.4922Z" fill="white"/>
<path d="M32.9912 27.7677V27.3233C33.1056 27.3063 33.2203 27.2956 33.3319 27.2717C33.5264 27.2301 33.7232 27.1923 33.9114 27.1303C34.1721 27.0443 34.2868 26.8669 34.2847 26.5906C34.283 26.3757 34.2248 26.1719 34.1478 25.9737C33.9704 25.5172 33.7891 25.0618 33.6095 24.606C33.4529 24.2082 33.2973 23.8099 33.1409 23.4117C33.1243 23.3697 33.1059 23.3285 33.089 23.2883H29.0992C29.0826 23.3271 29.0656 23.3645 29.0507 23.4023C28.8774 23.8474 28.7048 24.2924 28.5315 24.7374C28.3849 25.1135 28.3128 25.5023 28.3197 25.9065C28.326 26.261 28.4428 26.573 28.6649 26.8471C28.8736 27.1046 29.1471 27.2481 29.4722 27.2973C29.5339 27.3067 29.5956 27.314 29.6708 27.3244C29.6829 27.4706 29.6753 27.6179 29.6753 27.7632C29.5789 27.7905 25.9105 27.7961 25.7667 27.7697V27.323C25.8235 27.3095 25.88 27.2966 25.9362 27.2824C26.3538 27.1767 26.6872 26.9379 26.9728 26.6242C27.2609 26.3078 27.4851 25.9477 27.6563 25.5585C27.8369 25.1481 28.0015 24.7308 28.1651 24.3135C29.0306 22.1019 29.8929 19.8889 30.7591 17.6773C30.7917 17.5945 30.782 17.5359 30.7373 17.4607C30.5255 17.103 30.2038 16.9262 29.8028 16.8722C29.7328 16.8628 29.6632 16.8517 29.5845 16.8399V16.4258C29.6143 16.4143 29.6482 16.4005 29.6829 16.3887C30.2954 16.1786 30.9074 15.9683 31.5209 15.7603C31.5785 15.7409 31.6422 15.7312 31.7032 15.7302C31.9271 15.7267 32.1514 15.7288 32.3819 15.7288C32.4041 15.7835 32.4245 15.8327 32.4439 15.8823C33.7232 19.1448 35.0015 22.408 36.2843 25.669C36.3858 25.9273 36.5113 26.1768 36.6385 26.4236C36.8388 26.8128 37.1622 27.061 37.575 27.1954C37.6856 27.2315 37.7975 27.2616 37.9091 27.2949C37.9403 27.3043 37.9712 27.314 38.0038 27.324V27.7635C37.9074 27.7912 33.115 27.795 32.9909 27.7673L32.9912 27.7677ZM29.3048 22.7296C29.5297 22.7552 32.7708 22.7462 32.8713 22.7195C32.2786 21.2198 31.6863 19.7212 31.0939 18.2228C31.0856 18.2232 31.0773 18.2235 31.069 18.2242C30.4822 19.7229 29.8954 21.2212 29.3051 22.7296H29.3048ZM34.1225 27.3143C34.2348 27.3143 34.3222 27.3209 34.4081 27.3129C34.5717 27.298 34.7263 27.253 34.8563 27.1452C35.0881 26.9525 35.1464 26.7022 35.1027 26.4156C35.0438 26.0312 34.9187 25.6666 34.7769 25.3069C34.0764 23.5302 33.3746 21.7543 32.6737 19.978C32.3718 19.2134 32.0717 18.4481 31.7694 17.6839C31.6745 17.4441 31.567 17.2105 31.4066 17.0053C31.2631 16.8223 31.0759 16.7145 30.8451 16.6961C30.705 16.685 30.5633 16.6944 30.4226 16.6961C30.3966 16.6965 30.3706 16.7055 30.3203 16.7152C30.3668 16.7415 30.39 16.7568 30.4149 16.7685C30.6673 16.8874 30.8679 17.0645 30.9979 17.311C31.1061 17.5161 31.2118 17.7244 31.2963 17.9404C32.1375 20.0809 32.9746 22.2232 33.812 24.3652C34.0161 24.8871 34.221 25.4087 34.4189 25.9331C34.5114 26.1785 34.5755 26.4319 34.5676 26.6988C34.563 26.8523 34.5166 26.983 34.3953 27.0831C34.3093 27.1538 34.2258 27.2273 34.1229 27.3147L34.1225 27.3143ZM26.7132 27.3143H28.2684C28.2261 27.2738 28.1977 27.2457 28.1686 27.2187C27.9825 27.0436 27.8438 26.8374 27.7939 26.5851C27.7669 26.4478 27.7686 26.305 27.7572 26.1647C27.7551 26.1394 27.7506 26.1144 27.7433 26.0593C27.473 26.5626 27.1496 26.983 26.7132 27.3147V27.3143Z" fill="white"/>
<path d="M17.5235 27.3218V27.778H12.5151V27.3236C12.6794 27.2979 12.8402 27.2792 12.9979 27.2459C13.1518 27.2134 13.305 27.1732 13.454 27.1232C13.6921 27.0435 13.8006 26.8626 13.8072 26.6189C13.8134 26.3951 13.7514 26.1829 13.672 25.9767C13.5285 25.6048 13.3795 25.235 13.2339 24.8642C13.0426 24.3772 12.8523 23.8899 12.6613 23.4029C12.6464 23.3648 12.6291 23.327 12.6125 23.2875H8.6224C8.60715 23.3232 8.58982 23.3603 8.57526 23.3981C8.40058 23.8469 8.22623 24.2961 8.05189 24.7449C7.90736 25.1172 7.83666 25.5022 7.84289 25.9022C7.84844 26.2523 7.96143 26.5614 8.17771 26.8342C8.38948 27.1011 8.66884 27.2497 9.00401 27.2983C9.06501 27.3069 9.12636 27.3156 9.19291 27.3253V27.778H5.29156V27.327C5.3082 27.3208 5.32657 27.3107 5.34598 27.3073C5.82048 27.2186 6.19377 26.9603 6.50987 26.6086C6.8128 26.2713 7.04259 25.8856 7.22075 25.4717C7.41242 25.0257 7.5871 24.572 7.76422 24.1197C8.60334 21.9736 9.44038 19.8264 10.2809 17.6807C10.3131 17.5982 10.3079 17.5396 10.2629 17.4634C10.049 17.1012 9.72424 16.9227 9.31803 16.8707C9.24871 16.8617 9.17973 16.8495 9.10522 16.8378V16.4295C9.13156 16.4184 9.16067 16.4038 9.19083 16.3934C9.80708 16.182 10.4233 15.9702 11.0406 15.7616C11.102 15.7408 11.1699 15.7311 11.2351 15.7301C11.4548 15.7262 11.6749 15.7287 11.9037 15.7287C11.9252 15.7807 11.9466 15.8292 11.9661 15.8784C13.1133 18.8047 14.2606 21.731 15.4082 24.6572C15.5735 25.0787 15.734 25.5019 15.9111 25.9185C16.0015 26.1316 16.1159 26.3358 16.2324 26.5368C16.3894 26.8078 16.6206 27.0023 16.9107 27.1187C17.0795 27.1867 17.2559 27.2366 17.4288 27.2941C17.46 27.3045 17.4919 27.3125 17.5245 27.3218H17.5235ZM12.4 22.7361C11.8007 21.2204 11.2084 19.7211 10.6122 18.2127C10.5256 18.3565 8.85566 22.6425 8.84838 22.7361H12.4ZM13.6367 27.3159C13.7486 27.3159 13.8301 27.3215 13.9105 27.3149C14.0782 27.3007 14.238 27.2591 14.3725 27.1496C14.6061 26.9593 14.6685 26.7098 14.6259 26.4228C14.5687 26.0381 14.4432 25.6731 14.3018 25.3137C13.6232 23.5911 12.9428 21.8689 12.2634 20.1467C11.939 19.3242 11.6153 18.5014 11.2895 17.6789C11.1959 17.4429 11.0899 17.2131 10.9328 17.0107C10.7876 16.8232 10.5973 16.7126 10.3616 16.6953C10.2175 16.6846 10.0715 16.6946 9.92666 16.6974C9.90621 16.6977 9.88611 16.7092 9.86392 16.7161C9.8712 16.7293 9.87224 16.7345 9.87536 16.7362C9.89339 16.7463 9.91141 16.7567 9.93012 16.7653C10.1918 16.8859 10.3956 17.071 10.5291 17.3254C10.633 17.5237 10.7346 17.7247 10.816 17.9326C11.8326 20.5217 12.8454 23.1125 13.8588 25.7026C13.9528 25.9427 14.0339 26.1864 14.0758 26.4422C14.1254 26.7423 14.0803 27.0057 13.801 27.1846C13.7504 27.2168 13.7067 27.2598 13.637 27.3163L13.6367 27.3159ZM7.28417 26.0911C7.27482 26.09 7.26511 26.0887 7.25575 26.0876C7.2003 26.1788 7.14657 26.271 7.08904 26.3604C7.03046 26.4512 6.97119 26.5417 6.90673 26.628C6.84191 26.7143 6.77363 26.7985 6.70015 26.8775C6.62667 26.9565 6.54626 27.0293 6.46585 27.1014C6.38821 27.1711 6.30641 27.2359 6.21352 27.3142C6.61246 27.3385 7.68138 27.3277 7.7812 27.2976C7.39474 26.986 7.23738 26.5808 7.28417 26.0911Z" fill="white"/>
<path d="M27.6986 36.8102C27.5572 36.9499 27.4217 37.0961 27.2733 37.2282C26.628 37.8022 25.8807 38.2021 25.0721 38.4926C24.3771 38.7421 23.66 38.8939 22.9263 38.974C22.1596 39.0575 21.3915 39.0669 20.6231 39.0177C19.4353 38.9418 18.2891 38.6922 17.2115 38.1713C16.6545 37.9023 16.1391 37.5706 15.6865 37.1468C15.5984 37.0646 15.5166 36.9759 15.4334 36.8885C15.4061 36.8598 15.3842 36.8258 15.351 36.7828C15.4927 36.7665 15.6192 36.7551 15.745 36.7371C16.3731 36.6473 16.9751 36.4605 17.5668 36.238C18.5522 35.8675 19.4949 35.4065 20.412 34.8911C20.4481 34.871 20.4841 34.8506 20.5267 34.8267C21.1849 35.3015 21.8487 35.3278 22.5239 34.8308C22.5564 34.8481 22.596 34.8686 22.6348 34.8904C23.6836 35.4772 24.7622 35.9999 25.9022 36.3877C26.3587 36.543 26.8227 36.6702 27.3018 36.7371C27.4283 36.7548 27.5551 36.7665 27.682 36.7811C27.6872 36.7908 27.6924 36.8008 27.6976 36.8106L27.6986 36.8102Z" fill="white"/>
<path d="M22.3249 10.4536C22.6576 10.282 22.9876 10.1479 23.3269 10.0369C23.9817 9.82345 24.6541 9.70353 25.341 9.65743C26.0776 9.60821 26.8099 9.65535 27.5433 9.72363C28.3277 9.79641 29.0739 10.0179 29.8198 10.2484C30.4305 10.4369 31.043 10.6189 31.67 10.7488C32.3271 10.8851 32.986 10.9069 33.6525 10.8202C34.3676 10.7274 35.0497 10.5319 35.6964 10.2144C35.8975 10.1156 36.0988 10.0172 36.2947 9.90836C36.5775 9.75136 36.8662 9.7517 37.1594 9.86088C37.2315 9.88757 37.3001 9.93401 37.3584 9.98496C37.4592 10.0733 37.4925 10.1908 37.4679 10.3239C37.4454 10.4463 37.3903 10.5544 37.3074 10.6431C37.1972 10.761 37.0835 10.8785 36.957 10.9779C36.5886 11.2677 36.172 11.4753 35.7429 11.6569C34.9478 11.9938 34.1211 12.2205 33.2695 12.3598C32.5781 12.4728 31.8831 12.5199 31.1833 12.4801C30.6212 12.4478 30.0697 12.3543 29.5356 12.172C28.6178 11.859 27.6719 11.7699 26.7094 11.8219C25.3369 11.8957 24.0191 12.2194 22.7356 12.6988C22.6802 12.7196 22.6216 12.7643 22.5641 12.7016C22.5117 12.6444 22.5187 12.5778 22.544 12.5144C22.5655 12.461 22.5942 12.4097 22.6254 12.3612C22.7609 12.1508 22.8465 11.9179 22.858 11.6722C22.8795 11.2109 22.7422 10.8043 22.3727 10.4993C22.3606 10.4893 22.3495 10.4778 22.3242 10.4542L22.3249 10.4536Z" fill="white"/>
<path d="M20.7205 10.4678C20.7066 10.4747 20.6903 10.4806 20.6772 10.4903C20.4234 10.6778 20.2962 10.9409 20.2179 11.2383C20.1101 11.6483 20.2106 12.0171 20.4182 12.3696C20.4515 12.426 20.4786 12.4874 20.5025 12.5487C20.525 12.6073 20.5146 12.6638 20.4675 12.7092C20.42 12.755 20.3735 12.7203 20.3288 12.7037C19.5895 12.424 18.8336 12.2021 18.0593 12.0444C17.2423 11.8781 16.4178 11.7855 15.5832 11.8119C14.8737 11.8344 14.1787 11.9432 13.5046 12.1751C12.8135 12.4129 12.0971 12.4999 11.3699 12.494C9.91867 12.4822 8.52637 12.1824 7.19369 11.6074C6.85749 11.4625 6.53168 11.2958 6.23395 11.0813C6.09289 10.9797 5.95633 10.8685 5.83398 10.7454C5.74802 10.6588 5.67419 10.552 5.62151 10.4418C5.51718 10.2241 5.58304 10.0301 5.79169 9.91048C5.86621 9.86785 5.94974 9.83457 6.03362 9.81551C6.30327 9.75382 6.55491 9.79229 6.80099 9.93231C7.36942 10.2557 7.96661 10.5146 8.60366 10.6733C9.12183 10.8026 9.64936 10.8688 10.1824 10.8775C10.7048 10.8858 11.2195 10.805 11.722 10.6709C12.3917 10.4921 13.0554 10.2924 13.7209 10.0994C14.1198 9.98361 14.5163 9.85745 14.9288 9.80165C15.3319 9.74689 15.7367 9.69663 16.1426 9.6696C16.5443 9.64291 16.9484 9.63147 17.3508 9.64187C18.4804 9.67098 19.568 9.89349 20.5922 10.3867C20.6259 10.403 20.6591 10.4196 20.6924 10.437C20.6986 10.4401 20.7025 10.4477 20.7205 10.4681V10.4678Z" fill="white"/>
<path d="M15.953 28.9543C16.0563 29.0288 16.1322 29.086 16.2105 29.1397C16.8441 29.5726 17.5387 29.8752 18.2728 30.089C19.3078 30.3909 20.3649 30.4987 21.4404 30.4478C22.0851 30.4173 22.7246 30.3466 23.3533 30.2003C24.591 29.9123 25.6024 29.2576 26.4152 28.2871C26.4737 28.2171 26.5309 28.1457 26.586 28.0726C26.6134 28.0362 26.6432 28.0195 26.69 28.0195C27.5548 28.0209 28.4192 28.0206 29.284 28.0213C29.2947 28.0213 29.3055 28.0268 29.3308 28.0341C29.2933 28.0871 29.2618 28.1339 29.2282 28.179C28.5915 29.034 27.8449 29.7833 27.0176 30.453C26.2134 31.1039 25.3514 31.664 24.4076 32.093C23.7928 32.3724 23.1575 32.5862 22.4882 32.6944C22.0674 32.7627 21.6445 32.7751 21.2203 32.7471C19.4911 32.632 17.9026 32.0705 16.4032 31.2262C16.3045 31.1708 16.2525 31.1066 16.2372 30.9905C16.1648 30.4346 16.0833 29.8797 16.005 29.3245C15.9887 29.2097 15.9724 29.095 15.9527 28.9539L15.953 28.9543Z" fill="white"/>
<path d="M26.5223 26.7188C26.3126 26.8946 26.0966 27.0183 25.8426 27.0699C25.8062 27.0772 25.7691 27.0834 25.7334 27.0938C25.5882 27.1358 25.5376 27.1888 25.5296 27.3365C25.5216 27.4813 25.5209 27.6276 25.5299 27.7725C25.5396 27.9326 25.6381 28.0144 25.8145 28.0199C25.9389 28.0241 26.0637 28.0206 26.1885 28.021C26.2242 28.021 26.2599 28.021 26.3022 28.021C26.2252 28.1648 25.8786 28.5436 25.6842 28.6993C25.6474 28.6753 25.6065 28.6497 25.5663 28.6227C24.5653 27.9426 23.6063 27.2072 22.6719 26.4391C22.3734 26.1937 22.0809 25.9411 21.7821 25.696C21.4373 25.4125 21.1368 25.0846 20.8377 24.7561C20.1458 23.996 19.497 23.202 18.9431 22.3341C18.6319 21.8464 18.3522 21.3418 18.1702 20.7897C18.1158 20.6247 18.0773 20.4538 18.0371 20.2843C18.0066 20.1554 18.0288 20.0254 18.0655 19.9027C18.1581 19.5929 18.2524 19.283 18.3619 18.9787C18.4534 18.7254 18.5674 18.48 18.6724 18.2311C18.6863 18.1985 18.7043 18.1677 18.7317 18.1133C18.7456 18.159 18.7522 18.1805 18.7584 18.202C19.0086 19.0626 19.4062 19.8546 19.8803 20.6105C20.5091 21.6128 21.2768 22.4998 22.1308 23.3149C23.4396 24.5641 24.8631 25.6662 26.3912 26.6339C26.4297 26.6582 26.4675 26.6835 26.5226 26.7192L26.5223 26.7188Z" fill="white"/>
<path d="M20.5285 13.566C21.1915 13.756 21.8487 13.7587 22.5145 13.5657C22.5173 13.5931 22.5225 13.6239 22.5232 13.6547C22.5564 15.2955 22.5876 16.9363 22.6226 18.5771C22.6382 19.3122 22.6611 20.0473 22.6822 20.7824C22.684 20.8431 22.6743 20.8947 22.6393 20.946C22.3107 21.4271 21.9475 21.8804 21.5516 22.3078C21.5437 22.3164 21.5322 22.3223 21.5114 22.3372C21.4757 22.3005 21.4379 22.2641 21.4029 22.2249C21.0543 21.834 20.7264 21.4264 20.4217 21.0001C20.3836 20.9464 20.367 20.893 20.3687 20.8275C20.3905 19.9884 20.4106 19.1496 20.4314 18.3105C20.4519 17.4797 20.4751 16.6493 20.4917 15.8185C20.5063 15.0959 20.5132 14.3729 20.5236 13.6499C20.524 13.6218 20.5267 13.5941 20.5285 13.566Z" fill="white"/>
<path d="M22.6705 30.0915C21.91 30.2086 21.1617 30.245 20.3971 30.2097C20.3902 30.1695 20.3801 30.1303 20.3774 30.0911C20.3403 29.5525 20.3112 29.0136 20.2665 28.4757C20.2006 27.6833 20.2172 26.8907 20.2377 26.0973C20.2398 26.0152 20.2654 25.957 20.3247 25.9032C20.5281 25.7199 20.7292 25.5334 20.9316 25.3487C20.9524 25.3296 20.977 25.3147 20.9995 25.2981C21.0144 25.3081 21.0259 25.3133 21.0342 25.322C21.4893 25.7975 22.0126 26.1954 22.5131 26.619C22.5956 26.6886 22.6781 26.7583 22.7651 26.8224C22.8143 26.8588 22.8327 26.9014 22.8316 26.96C22.8226 27.3544 22.823 27.7489 22.8043 28.1426C22.7831 28.5904 22.746 29.0375 22.7152 29.4849C22.7017 29.6832 22.6861 29.8814 22.6705 30.0911V30.0915Z" fill="white"/>
<path d="M17.5072 29.5775C17.4306 29.5446 17.3657 29.5186 17.3023 29.4891C16.9207 29.3131 16.5578 29.1051 16.2185 28.8552C16.1426 28.7994 16.1156 28.7367 16.1135 28.6466C16.1086 28.4279 16.1828 28.2314 16.2705 28.0206H16.3994C16.7401 28.0206 17.0808 28.0213 17.4215 28.0206C17.6905 28.0199 17.7699 27.9253 17.7709 27.6675C17.7709 27.5801 17.7723 27.4931 17.7709 27.4058C17.7675 27.203 17.7113 27.1347 17.5193 27.0786C17.3564 27.0311 17.1949 26.9788 17.0337 26.9247C16.9838 26.9081 16.938 26.8786 16.877 26.8485C17.6267 25.6434 18.5272 24.6025 19.7358 23.8542C20.1004 24.2754 20.4612 24.692 20.83 25.1176C19.3861 26.3445 18.3137 27.8522 17.5075 29.5772L17.5072 29.5775Z" fill="white"/>
<path d="M2.90762 21.8911H8.38357C8.36901 21.9355 8.35792 21.9746 8.34302 22.0121C8.12397 22.5725 7.90284 23.1323 7.6876 23.6941C7.6564 23.7752 7.60822 23.8092 7.53024 23.8282C6.93513 23.9724 6.33239 24.0057 5.72341 23.9634C5.29016 23.9332 4.86661 23.8577 4.46005 23.7021C4.00912 23.5295 3.61816 23.2712 3.32146 22.8838C3.1239 22.6259 2.98907 22.3389 2.92565 22.0194C2.91767 21.9795 2.91421 21.9389 2.90762 21.8911Z" fill="white"/>
<path d="M35.0528 21.8897H40.1478C40.127 21.9885 40.1142 22.0817 40.0879 22.1708C39.9281 22.7177 39.5947 23.1326 39.1184 23.4376C38.742 23.6788 38.3261 23.8178 37.8894 23.8941C37.2336 24.0088 36.5758 24.0095 35.9176 23.9093C35.8489 23.8989 35.8184 23.8691 35.7949 23.8085C35.5588 23.2012 35.3207 22.595 35.0836 21.9885C35.0719 21.9584 35.0642 21.9268 35.0528 21.889V21.8897Z" fill="white"/>
<path d="M24.2513 18.115C24.2683 18.1507 24.2815 18.1708 24.2881 18.1933C24.4839 18.8667 24.6811 19.5398 24.8717 20.215C24.8922 20.2871 24.8849 20.372 24.8717 20.4479C24.836 20.6586 24.749 20.8524 24.651 21.0406C24.4406 21.4437 24.1768 21.8114 23.8981 22.1687C23.5453 22.6214 23.1654 23.0508 22.7738 23.4695C22.7568 23.4875 22.7436 23.509 22.7225 23.5374C22.3554 23.2092 22.0185 22.8741 21.6792 22.5226C22.2698 21.8929 22.7824 21.2111 23.2164 20.4711C23.6503 19.7312 24.0045 18.9555 24.2513 18.115Z" fill="white"/>
<path d="M20.6086 7.15085C20.7264 7.0843 20.7895 6.98171 20.846 6.87461C20.9759 6.62715 21.0706 6.36478 21.1434 6.09651C21.2661 5.64386 21.3766 5.1881 21.4924 4.73371C21.5004 4.70287 21.5101 4.67237 21.5367 4.64221C21.5808 4.83353 21.6231 5.02554 21.6695 5.21617C21.7801 5.67228 21.8969 6.12632 22.0667 6.56511C22.1041 6.66181 22.1464 6.75677 22.1922 6.84966C22.2511 6.96923 22.3194 7.08292 22.4448 7.15431C22.4067 7.36158 22.3662 7.56468 22.3318 7.76882C22.2362 8.34209 22.1419 8.9157 22.0497 9.48931C22.0365 9.5711 22.0313 9.65532 22.0352 9.73781C22.0383 9.80401 22.0099 9.84179 21.9572 9.86432C21.8965 9.89031 21.8334 9.92359 21.77 9.92705C21.6088 9.93607 21.4466 9.93433 21.2848 9.92879C21.2328 9.92705 21.1801 9.90349 21.1302 9.88442C21.0543 9.85566 21.0234 9.80575 21.0151 9.71633C20.9884 9.42727 20.9541 9.13821 20.9066 8.85158C20.8182 8.31921 20.7181 7.78892 20.6235 7.2576C20.6176 7.22502 20.6141 7.19244 20.6086 7.15085Z" fill="white"/>
<path d="M31.5414 30.9337C31.3975 30.9951 31.2447 31.0058 31.0925 31.0086C30.7203 31.0152 30.356 30.9525 29.9969 30.8603C29.2736 30.6741 28.5925 30.3795 27.9291 30.0409C27.9218 30.0371 27.9159 30.0312 27.9034 30.0215C28.1766 29.7387 28.4573 29.4638 28.719 29.172C28.9821 28.8788 29.2264 28.5686 29.4801 28.2643C29.8479 28.3901 30.2201 28.5301 30.6003 28.6441C30.9771 28.7571 31.3618 28.8441 31.7538 28.9453C31.4804 29.1166 31.1882 29.2573 30.8901 29.3852C30.5886 29.5148 30.2818 29.6306 29.9376 29.6465C29.9487 29.6694 29.9546 29.6888 29.9661 29.7033C30.2128 30.018 30.478 30.3158 30.7892 30.5684C30.8922 30.652 31.0027 30.7268 31.1161 30.7954C31.2686 30.8876 31.3615 30.9109 31.5407 30.9334L31.5414 30.9337Z" fill="white"/>
<path d="M20.5746 32.9255C21.2106 32.9966 21.8306 33.0382 22.4618 32.9339C22.4646 32.9696 22.4705 33.0004 22.4691 33.0309C22.4573 33.2839 22.4414 33.5369 22.432 33.7903C22.4244 33.9937 22.4185 34.1972 22.423 34.4006C22.4254 34.5164 22.3852 34.6027 22.2951 34.6682C22.2518 34.6997 22.205 34.7285 22.1565 34.751C21.9696 34.8366 21.7714 34.8973 21.5686 34.9015C21.2872 34.907 21.0175 34.8335 20.7756 34.6828C20.6647 34.6134 20.6231 34.5122 20.6248 34.3767C20.6286 34.0988 20.6169 33.8204 20.6071 33.5425C20.6002 33.3439 20.5863 33.1456 20.5742 32.9259L20.5746 32.9255Z" fill="white"/>
<path d="M22.5204 11.5651C22.5204 12.1238 22.0681 12.5748 21.5132 12.5696C20.959 12.5644 20.5177 12.1193 20.5177 11.5658C20.5177 11.0075 20.9676 10.559 21.5253 10.5614C22.076 10.5638 22.5207 11.012 22.5207 11.5651H22.5204Z" fill="white"/>
<path d="M28.7786 24.7585C28.8621 25.0147 28.9145 25.2524 28.9415 25.4933C28.9686 25.7314 28.9724 25.9723 28.9866 26.217C28.9883 26.2163 29.0046 26.2156 29.0153 26.2073C29.3141 25.9869 29.5893 25.7411 29.8132 25.4427C29.9335 25.2822 30.0316 25.1103 30.0766 24.9114C30.1141 24.7461 30.0922 24.5901 30.0163 24.44C30.0077 24.4227 29.9983 24.4057 30.0011 24.379C30.0215 24.4016 30.0434 24.423 30.0617 24.4473C30.2642 24.7149 30.3557 25.0213 30.373 25.3519C30.3955 25.7834 30.2953 26.1934 30.138 26.5903C30.0617 26.7826 29.9709 26.9695 29.8815 27.1708C29.7609 27.0922 29.6365 27.0776 29.5093 27.0672C29.3127 27.0513 29.1412 26.9712 28.9942 26.8398C28.7176 26.5934 28.5561 26.294 28.5544 25.9148C28.5526 25.5543 28.5987 25.2032 28.727 24.8649C28.7381 24.8362 28.7537 24.8091 28.7786 24.7579V24.7585Z" fill="white"/>
<path d="M18.9289 17.9649C19.2135 17.7393 19.8582 17.402 20.1108 17.349C20.0862 18.3569 20.0616 19.3617 20.0374 20.3661C20.0276 20.3682 20.0176 20.3702 20.0079 20.372C19.5428 19.6199 19.1556 18.8324 18.9289 17.9645V17.9649Z" fill="white"/>
<path d="M23.0133 20.3055C22.988 19.3098 22.9627 18.3143 22.937 17.2988C23.3561 17.4548 23.7169 17.6766 24.0614 17.9452C23.833 18.7836 23.4774 19.5649 23.0403 20.3111C23.0313 20.3093 23.0223 20.3073 23.0129 20.3055H23.0133Z" fill="white"/>
<path d="M5.55914 12.1283C5.51027 12.3668 5.46625 12.5855 5.42016 12.8042C5.12485 14.2137 4.83371 15.624 4.53216 17.0322C4.24691 18.3632 3.95091 19.692 3.65908 21.0215C3.64487 21.0863 3.62719 21.1504 3.60882 21.2142C3.5804 21.312 3.5447 21.3373 3.47295 21.3161C3.3967 21.2936 3.37868 21.2569 3.39982 21.1626C3.4986 20.7255 3.59808 20.2885 3.69686 19.8511C4.1256 17.9524 4.55539 16.0542 4.98275 14.1552C5.12208 13.5358 5.25829 12.9154 5.39139 12.2947C5.4108 12.2045 5.45447 12.156 5.55914 12.1283Z" fill="white"/>
<path d="M37.5019 12.1304C37.5909 12.1574 37.6388 12.1976 37.6575 12.2836C37.8173 13.0222 37.9788 13.7604 38.1445 14.4976C38.5538 16.3165 38.9659 18.1347 39.377 19.9533C39.4667 20.3502 39.5579 20.7467 39.648 21.1435C39.6723 21.2506 39.666 21.2728 39.6075 21.3047C39.5368 21.3431 39.4758 21.3227 39.4525 21.2444C39.4161 21.121 39.3829 20.9966 39.3551 20.8707C39.1208 19.8084 38.8831 18.7468 38.6564 17.6828C38.3223 16.1151 37.9958 14.5461 37.6662 12.9774C37.6149 12.7338 37.5639 12.4898 37.514 12.2458C37.5071 12.2111 37.5064 12.1751 37.5022 12.1304H37.5019Z" fill="white"/>
<path d="M5.88527 12.1969C5.89013 12.2503 5.89706 12.3033 5.90018 12.3567C5.95806 13.3563 6.01664 14.3555 6.07313 15.355C6.11057 16.0146 6.14523 16.6742 6.18197 17.3337C6.22806 18.1673 6.27624 19.0009 6.32026 19.8348C6.34972 20.3949 6.37329 20.9553 6.39963 21.5154C6.40067 21.5362 6.40067 21.557 6.40067 21.5778C6.40067 21.6901 6.38611 21.7147 6.32061 21.7143C6.23603 21.7143 6.18543 21.6655 6.18162 21.5781C6.16533 21.1879 6.14904 20.7976 6.13309 20.4077C6.09254 19.4074 6.05164 18.4068 6.01178 17.4065C5.98267 16.6759 5.95598 15.9453 5.92687 15.2147C5.88978 14.2889 5.85165 13.3632 5.81318 12.4378C5.80972 12.3508 5.8066 12.2652 5.88562 12.1976L5.88527 12.1969Z" fill="white"/>
<path d="M37.165 12.1675C37.2416 12.2469 37.2381 12.3217 37.2357 12.3959C37.2242 12.7283 37.2131 13.0606 37.2 13.3927C37.1799 13.8952 37.1573 14.3975 37.1369 14.9C37.0963 15.8968 37.0558 16.8933 37.0159 17.8901C36.9872 18.6086 36.9601 19.327 36.9314 20.0455C36.9109 20.5522 36.8891 21.0586 36.8672 21.5653C36.8652 21.6139 36.8714 21.6634 36.8121 21.6922C36.7088 21.7421 36.6513 21.713 36.6551 21.5986C36.6662 21.2496 36.6787 20.9009 36.695 20.5522C36.7137 20.1537 36.7366 19.7554 36.7584 19.3572C36.7976 18.6436 36.8371 17.9299 36.8766 17.2159C36.9036 16.7304 36.9303 16.2451 36.9577 15.7596C36.9969 15.075 37.0367 14.3905 37.0759 13.706C37.1026 13.2412 37.1296 12.7768 37.1563 12.312C37.1587 12.2711 37.1615 12.2302 37.1653 12.1682L37.165 12.1675Z" fill="white"/>
<path d="M6.24955 12.0825C6.33378 12.122 6.36982 12.2011 6.39824 12.2829C6.50188 12.5809 6.60412 12.8793 6.70499 13.1781C7.47167 15.4469 8.23523 17.7167 9.00919 19.9827C9.07192 20.1664 9.01751 20.2992 8.9319 20.477C8.02068 17.6658 7.11848 14.8823 6.21628 12.0985C6.22737 12.0933 6.23846 12.0877 6.24955 12.0825Z" fill="white"/>
<path d="M34.274 19.919C34.2407 19.8362 34.1991 19.7551 34.1773 19.6692C34.1662 19.6262 34.1852 19.5725 34.2008 19.5267C34.4372 18.8224 34.6743 18.1185 34.9127 17.4149C35.4853 15.7246 36.0583 14.0346 36.6315 12.3446C36.6489 12.2937 36.6669 12.2424 36.6915 12.1945C36.7178 12.1436 36.7511 12.0951 36.8374 12.0774C35.9921 14.7021 35.1505 17.313 34.274 19.9187V19.919Z" fill="white"/>
<path d="M20.4016 12.887C20.4633 12.8988 20.5163 12.9022 20.5645 12.9196C20.8515 13.0232 21.1499 13.0797 21.4518 13.0949C21.6355 13.1043 21.8237 13.0721 22.0067 13.0412C22.1651 13.0145 22.3194 12.9625 22.476 12.9227C22.5266 12.9099 22.5776 12.8991 22.6375 12.8853C22.6618 13.0086 22.616 13.0922 22.544 13.1646C22.4601 13.2492 22.3533 13.2949 22.2417 13.3303C22.0338 13.3965 21.8185 13.4121 21.6029 13.4155C21.3329 13.42 21.0622 13.4142 20.803 13.3285C20.7063 13.2967 20.612 13.2478 20.5271 13.1913C20.4307 13.1268 20.3981 13.0346 20.4016 12.887Z" fill="white"/>
<path d="M6.10781 11.6164C6.10746 11.745 6.0066 11.8455 5.87905 11.8448C5.75116 11.8441 5.65203 11.7429 5.65238 11.6144C5.65307 11.4872 5.75566 11.3846 5.88113 11.3853C6.00729 11.386 6.10816 11.4892 6.10781 11.6164Z" fill="white"/>
<path d="M37.402 11.613C37.4038 11.7364 37.2977 11.8438 37.1729 11.8452C37.0482 11.8466 36.9404 11.7416 36.939 11.6178C36.9376 11.4948 37.0443 11.3867 37.1681 11.3853C37.2922 11.3839 37.4 11.4892 37.4017 11.6133L37.402 11.613Z" fill="white"/>
<path d="M50.4084 16.4736V16.2958L50.9496 16.0736L53.2493 10.5637H53.5649L55.8556 16.0648L56.4238 16.2958V16.4736H54.3225V16.2958L55.0981 16.0648L54.3946 14.3318H52.1671L51.4726 16.0736L52.2482 16.2958V16.4736H50.4084ZM52.3384 13.9141H54.2233L53.2763 11.5857L52.3384 13.9141Z" fill="white"/>
<path d="M57.1785 16.4736V16.2958L57.8098 16.0736V11.8879L57.1785 11.6746V11.4969H58.3599L61.4352 15.3183V11.8879L60.7137 11.6746V11.4969H62.4904V11.6746L61.8681 11.8879V16.5091H61.5795L58.2336 12.4033V16.047L58.9912 16.2958V16.4736H57.1785ZM58.5673 10.5993C58.6635 10.2912 58.7507 10.0572 58.8289 9.89723C58.913 9.73726 58.9972 9.63062 59.0814 9.5773C59.1716 9.52398 59.2708 9.49731 59.379 9.49731C59.4932 9.49731 59.6014 9.5299 59.7037 9.59507C59.8059 9.66024 59.9021 9.73726 59.9923 9.82613C60.0824 9.90908 60.1726 9.98313 60.2628 10.0483C60.353 10.1135 60.4462 10.1461 60.5424 10.1461C60.6566 10.1461 60.7528 10.0987 60.831 10.0039C60.9151 9.90315 61.0053 9.7343 61.1015 9.49731H61.2188C61.1226 9.80539 61.0324 10.0394 60.9482 10.1994C60.8701 10.3593 60.7859 10.466 60.6957 10.5193C60.6115 10.5726 60.5153 10.5993 60.4071 10.5993C60.2929 10.5993 60.1846 10.5667 60.0824 10.5015C59.9802 10.4364 59.884 10.3623 59.7938 10.2794C59.7037 10.1905 59.6135 10.1135 59.5233 10.0483C59.4331 9.98313 59.3399 9.95055 59.2437 9.95055C59.1295 9.95055 59.0303 10.0009 58.9461 10.1016C58.8679 10.1964 58.7808 10.3623 58.6846 10.5993H58.5673Z" fill="white"/>
<path d="M66.196 16.5624C65.715 16.5624 65.2851 16.4528 64.9064 16.2336C64.5276 16.0085 64.227 15.7034 64.0045 15.3183C63.7881 14.9272 63.6798 14.4829 63.6798 13.9852C63.6798 13.4875 63.7881 13.0432 64.0045 12.6522C64.227 12.2611 64.5276 11.956 64.9064 11.7368C65.2851 11.5117 65.715 11.3991 66.196 11.3991C66.683 11.3991 67.1159 11.5117 67.4947 11.7368C67.8795 11.956 68.1801 12.2611 68.3965 12.6522C68.619 13.0432 68.7302 13.4875 68.7302 13.9852C68.7302 14.4829 68.619 14.9272 68.3965 15.3183C68.1801 15.7034 67.8795 16.0085 67.4947 16.2336C67.1159 16.4528 66.683 16.5624 66.196 16.5624ZM66.3583 16.1714C66.8814 16.1714 67.2963 15.9937 67.6029 15.6382C67.9155 15.2827 68.0719 14.8058 68.0719 14.2074C68.0719 13.7216 67.9847 13.298 67.8103 12.9366C67.642 12.5692 67.4075 12.2848 67.1069 12.0834C66.8063 11.882 66.4606 11.7813 66.0698 11.7813C65.5467 11.7813 65.1258 11.959 64.8072 12.3145C64.4885 12.6699 64.3292 13.1439 64.3292 13.7364C64.3292 14.2222 64.4164 14.6488 64.5907 15.0161C64.7651 15.3834 65.0056 15.6678 65.3122 15.8692C65.6188 16.0707 65.9675 16.1714 66.3583 16.1714Z" fill="white"/>
<path d="M71.8761 16.518L69.9462 11.8612L69.4411 11.6746V11.4969H71.308V11.6746L70.6676 11.8612V11.8968L72.1196 15.4871H72.1647L73.6077 11.8879V11.8524L72.9403 11.6746V11.4969H74.5276V11.6746L74.0857 11.8524L72.1377 16.518H71.8761Z" fill="white"/>
<path d="M75.4275 16.4736V16.2958L76.0588 16.0736V11.8968L75.4275 11.6746V11.4969H79.1522V12.741H78.9898L78.6111 11.879H76.7082V13.7097H78.097L78.3315 13.0965H78.4848V14.6873H78.3315L78.097 14.083H76.7082V16.0914H78.8185L79.2153 15.1139H79.3686V16.4736H75.4275Z" fill="white"/>
<path d="M80.5885 16.4736V16.2958L81.2288 16.0736V11.8968L80.5885 11.6746V11.4969H82.4103C82.9694 11.4969 83.4083 11.6094 83.727 11.8346C84.0456 12.0597 84.205 12.3619 84.205 12.741C84.205 13.0432 84.1088 13.298 83.9164 13.5053C83.73 13.7127 83.4745 13.8726 83.1498 13.9852L84.5837 16.1003L85.1429 16.2958V16.4736H84.0156L82.5095 14.163H81.8692V16.0648L82.4644 16.2958V16.4736H80.5885ZM82.3652 11.879H81.8692V13.7808H82.4103C82.747 13.7808 83.0145 13.6949 83.2129 13.5231C83.4113 13.3513 83.5105 13.1232 83.5105 12.8388C83.5105 12.5307 83.4113 12.2937 83.2129 12.1278C83.0145 11.962 82.7319 11.879 82.3652 11.879Z" fill="white"/>
<path d="M87.6627 16.4736V16.2958L88.2038 16.0736L90.5035 10.5637H90.8192L93.1099 16.0648L93.6781 16.2958V16.4736H91.5767V16.2958L92.3523 16.0648L91.6489 14.3318H89.4213L88.7269 16.0736L89.5025 16.2958V16.4736H87.6627ZM89.5927 13.9141H91.4775L90.5306 11.5857L89.5927 13.9141Z" fill="white"/>
<path d="M94.4327 16.4736V16.2958L95.064 16.0736V11.8879L94.4327 11.6746V11.4969H95.6142L98.6895 15.3183V11.8879L97.968 11.6746V11.4969H99.7446V11.6746L99.1224 11.8879V16.5091H98.8338L95.4879 12.4033V16.047L96.2455 16.2958V16.4736H94.4327ZM95.8216 10.5993C95.9178 10.2912 96.005 10.0572 96.0831 9.89723C96.1673 9.73726 96.2515 9.63062 96.3356 9.5773C96.4258 9.52398 96.525 9.49731 96.6333 9.49731C96.7475 9.49731 96.8557 9.5299 96.9579 9.59507C97.0601 9.66024 97.1563 9.73726 97.2465 9.82613C97.3367 9.90908 97.4269 9.98313 97.5171 10.0483C97.6073 10.1135 97.7004 10.1461 97.7966 10.1461C97.9109 10.1461 98.0071 10.0987 98.0852 10.0039C98.1694 9.90315 98.2596 9.7343 98.3558 9.49731H98.473C98.3768 9.80539 98.2866 10.0394 98.2025 10.1994C98.1243 10.3593 98.0401 10.466 97.95 10.5193C97.8658 10.5726 97.7696 10.5993 97.6614 10.5993C97.5471 10.5993 97.4389 10.5667 97.3367 10.5015C97.2345 10.4364 97.1383 10.3623 97.0481 10.2794C96.9579 10.1905 96.8677 10.1135 96.7776 10.0483C96.6874 9.98313 96.5942 9.95055 96.498 9.95055C96.3837 9.95055 96.2845 10.0009 96.2004 10.1016C96.1222 10.1964 96.035 10.3623 95.9388 10.5993H95.8216Z" fill="white"/>
<path d="M103.45 16.5624C102.969 16.5624 102.539 16.4528 102.161 16.2336C101.782 16.0085 101.481 15.7034 101.259 15.3183C101.042 14.9272 100.934 14.4829 100.934 13.9852C100.934 13.4875 101.042 13.0432 101.259 12.6522C101.481 12.2611 101.782 11.956 102.161 11.7368C102.539 11.5117 102.969 11.3991 103.45 11.3991C103.937 11.3991 104.37 11.5117 104.749 11.7368C105.134 11.956 105.434 12.2611 105.651 12.6522C105.873 13.0432 105.984 13.4875 105.984 13.9852C105.984 14.4829 105.873 14.9272 105.651 15.3183C105.434 15.7034 105.134 16.0085 104.749 16.2336C104.37 16.4528 103.937 16.5624 103.45 16.5624ZM103.613 16.1714C104.136 16.1714 104.551 15.9937 104.857 15.6382C105.17 15.2827 105.326 14.8058 105.326 14.2074C105.326 13.7216 105.239 13.298 105.065 12.9366C104.896 12.5692 104.662 12.2848 104.361 12.0834C104.061 11.882 103.715 11.7813 103.324 11.7813C102.801 11.7813 102.38 11.959 102.061 12.3145C101.743 12.6699 101.583 13.1439 101.583 13.7364C101.583 14.2222 101.671 14.6488 101.845 15.0161C102.019 15.3834 102.26 15.6678 102.566 15.8692C102.873 16.0707 103.222 16.1714 103.613 16.1714Z" fill="white"/>
<path d="M109.13 16.518L107.2 11.8612L106.695 11.6746V11.4969H108.562V11.6746L107.922 11.8612V11.8968L109.374 15.4871H109.419L110.862 11.8879V11.8524L110.195 11.6746V11.4969H111.782V11.6746L111.34 11.8524L109.392 16.518H109.13Z" fill="white"/>
<path d="M112.682 16.4736V16.2958L113.313 16.0736V11.8968L112.682 11.6746V11.4969H116.406V12.741H116.244L115.865 11.879H113.962V13.7097H115.351L115.586 13.0965H115.739V14.6873H115.586L115.351 14.083H113.962V16.0914H116.073L116.47 15.1139H116.623V16.4736H112.682Z" fill="white"/>
<path d="M117.843 16.4736V16.2958L118.483 16.0736V11.8968L117.843 11.6746V11.4969H119.665C120.224 11.4969 120.663 11.6094 120.981 11.8346C121.3 12.0597 121.459 12.3619 121.459 12.741C121.459 13.0432 121.363 13.298 121.171 13.5053C120.984 13.7127 120.729 13.8726 120.404 13.9852L121.838 16.1003L122.397 16.2958V16.4736H121.27L119.764 14.163H119.123V16.0648L119.719 16.2958V16.4736H117.843ZM119.619 11.879H119.123V13.7808H119.665C120.001 13.7808 120.269 13.6949 120.467 13.5231C120.666 13.3513 120.765 13.1232 120.765 12.8388C120.765 12.5307 120.666 12.2937 120.467 12.1278C120.269 11.962 119.986 11.879 119.619 11.879Z" fill="white"/>
<path d="M52.4557 25.4494C52.0949 25.4494 51.7883 25.4168 51.5358 25.3516C51.2832 25.2805 51.0187 25.1768 50.7421 25.0406L50.6519 23.6186H50.8053L51.2742 24.6406C51.4907 24.8065 51.6981 24.925 51.8965 24.9961C52.0949 25.0613 52.2963 25.0939 52.5007 25.0939C52.8735 25.0939 53.1621 24.9961 53.3665 24.8006C53.5709 24.6051 53.6732 24.3355 53.6732 23.9919C53.6732 23.7253 53.61 23.515 53.4838 23.3609C53.3575 23.2069 53.1771 23.0706 52.9427 22.9521C52.7142 22.8336 52.4436 22.6974 52.131 22.5433C51.8544 22.4071 51.6229 22.2708 51.4366 22.1345C51.2502 21.9983 51.1059 21.8413 51.0037 21.6635C50.9075 21.4858 50.8594 21.2636 50.8594 20.997C50.8594 20.8015 50.9075 20.6089 51.0037 20.4193C51.0999 20.2298 51.2291 20.0609 51.3915 19.9128C51.5598 19.7588 51.7462 19.6373 51.9506 19.5484C52.161 19.4536 52.3775 19.4062 52.5999 19.4062C52.8765 19.4062 53.126 19.4388 53.3485 19.504C53.577 19.5692 53.8114 19.661 54.0519 19.7795L54.1421 21.1659H53.9888L53.592 20.1883C53.4056 20.0342 53.2343 19.9276 53.0779 19.8684C52.9276 19.8032 52.7533 19.7706 52.5549 19.7706C52.2422 19.7706 51.9957 19.8654 51.8153 20.055C51.635 20.2386 51.5448 20.4697 51.5448 20.7482C51.5448 20.9555 51.5869 21.1333 51.671 21.2814C51.7612 21.4236 51.8965 21.5569 52.0769 21.6813C52.2572 21.7998 52.4857 21.9242 52.7623 22.0545C53.123 22.2264 53.4206 22.3893 53.6551 22.5433C53.8896 22.6974 54.064 22.8751 54.1782 23.0765C54.2924 23.2721 54.3495 23.5209 54.3495 23.823C54.3495 24.0778 54.2924 24.3059 54.1782 24.5073C54.064 24.7088 53.9136 24.8806 53.7273 25.0228C53.5409 25.159 53.3365 25.2657 53.114 25.3427C52.8915 25.4138 52.6721 25.4494 52.4557 25.4494Z" fill="white"/>
<path d="M55.1467 25.3605V25.1827L55.5886 25.0139L57.5907 20.3394H57.8883L59.8724 24.9872L60.3774 25.1827V25.3605H58.5286V25.1827L59.178 24.9961L58.5737 23.5653H56.6618L56.0666 25.005L56.743 25.1827V25.3605H55.1467ZM56.8151 23.1921H58.4204L57.6088 21.2636L56.8151 23.1921Z" fill="white"/>
<path d="M61.2386 25.3605V25.1827L61.8699 24.9606V20.7748L61.2386 20.5615V20.3838H62.42L65.4953 24.2052V20.7748L64.7738 20.5615V20.3838H66.5505V20.5615L65.9282 20.7748V25.396H65.6396L62.2937 21.2903V24.9339L63.0513 25.1827V25.3605H61.2386Z" fill="white"/>
<path d="M69.9495 25.3605V25.1827L70.671 24.9161V19.9395L69.9495 19.6728V19.4951H72.3664C73.0338 19.4951 73.599 19.6106 74.0619 19.8417C74.5309 20.0728 74.8856 20.3897 75.1261 20.7926C75.3726 21.1955 75.4959 21.6517 75.4959 22.1612C75.4959 22.7951 75.3606 23.352 75.09 23.8319C74.8195 24.3118 74.4437 24.688 73.9627 24.9606C73.4817 25.2272 72.9286 25.3605 72.3033 25.3605H69.9495ZM72.2763 19.9128H71.3744V24.9428H72.3755C72.8565 24.9428 73.2743 24.8391 73.629 24.6318C73.9898 24.4185 74.2663 24.1252 74.4587 23.7519C74.6572 23.3728 74.7564 22.9344 74.7564 22.4367C74.7564 21.9272 74.6602 21.4828 74.4678 21.1036C74.2754 20.7245 73.9928 20.4312 73.62 20.2238C73.2533 20.0165 72.8053 19.9128 72.2763 19.9128Z" fill="white"/>
<path d="M76.7585 25.3605V25.1827L77.3537 24.9606V20.7837L76.7585 20.5615V20.3838H78.6073V20.5615L78.003 20.7837V24.9606L78.6073 25.1827V25.3605H76.7585Z" fill="white"/>
<path d="M79.8223 25.3605V25.1827L80.4536 24.9606V20.7837L79.8223 20.5615V20.3838H83.5469V21.628H83.3846L83.0058 20.7659H81.1029V22.5966H82.4918L82.7263 21.9834H82.8796V23.5742H82.7263L82.4918 22.9699H81.1029V24.9783H83.2133L83.6101 24.0008H83.7634V25.3605H79.8223Z" fill="white"/>
<path d="M87.6438 25.4494C87.1387 25.4494 86.6878 25.3457 86.291 25.1383C85.9002 24.925 85.5905 24.6377 85.3621 24.2763C85.1396 23.9089 85.0284 23.4883 85.0284 23.0143C85.0284 22.6233 85.0975 22.2649 85.2358 21.939C85.3801 21.6072 85.5785 21.3199 85.831 21.077C86.0836 20.8281 86.3721 20.6356 86.6968 20.4993C87.0275 20.3631 87.3822 20.2949 87.761 20.2949C88.1638 20.2949 88.4855 20.3305 88.726 20.4016C88.9665 20.4667 89.1949 20.5527 89.4114 20.6593L89.4565 21.8768H89.3032L88.8883 21.0503C88.6659 20.9022 88.4705 20.7985 88.3021 20.7393C88.1338 20.6741 87.9444 20.6415 87.7339 20.6415C87.3131 20.6415 86.9433 20.7334 86.6247 20.917C86.312 21.0948 86.0655 21.3377 85.8851 21.6457C85.7108 21.9538 85.6236 22.2975 85.6236 22.6766C85.6236 23.1802 85.7198 23.6098 85.9122 23.9652C86.1046 24.3207 86.3631 24.5932 86.6878 24.7828C87.0185 24.9724 87.3822 25.0672 87.779 25.0672C87.9654 25.0672 88.1458 25.0554 88.3201 25.0317C88.4945 25.002 88.6779 24.9487 88.8703 24.8717V23.5742L88.1488 23.3343V23.1654H90.0427V23.3343L89.4745 23.5831V24.8539C89.2521 25.0376 88.9695 25.1827 88.6268 25.2894C88.2841 25.396 87.9564 25.4494 87.6438 25.4494Z" fill="white"/>
<path d="M93.6391 25.4494C93.1581 25.4494 92.7282 25.3397 92.3495 25.1205C91.9707 24.8954 91.6701 24.5903 91.4476 24.2052C91.2312 23.8142 91.1229 23.3698 91.1229 22.8721C91.1229 22.3745 91.2312 21.9301 91.4476 21.5391C91.6701 21.1481 91.9707 20.843 92.3495 20.6237C92.7282 20.3986 93.1581 20.286 93.6391 20.286C94.1261 20.286 94.559 20.3986 94.9378 20.6237C95.3226 20.843 95.6232 21.1481 95.8396 21.5391C96.0621 21.9301 96.1733 22.3745 96.1733 22.8721C96.1733 23.3698 96.0621 23.8142 95.8396 24.2052C95.6232 24.5903 95.3226 24.8954 94.9378 25.1205C94.559 25.3397 94.1261 25.4494 93.6391 25.4494ZM93.8014 25.0583C94.3245 25.0583 94.7394 24.8806 95.046 24.5251C95.3586 24.1696 95.515 23.6927 95.515 23.0943C95.515 22.6085 95.4278 22.1849 95.2534 21.8235C95.0851 21.4562 94.8506 21.1718 94.55 20.9703C94.2494 20.7689 93.9036 20.6682 93.5128 20.6682C92.9898 20.6682 92.5689 20.8459 92.2503 21.2014C91.9316 21.5569 91.7723 22.0308 91.7723 22.6233C91.7723 23.1091 91.8594 23.5357 92.0338 23.903C92.2082 24.2704 92.4487 24.5547 92.7553 24.7562C93.0619 24.9576 93.4106 25.0583 93.8014 25.0583Z" fill="white"/>
<path d="M100.747 25.4494C100.297 25.4494 99.9328 25.3279 99.6562 25.085C99.3797 24.8421 99.2414 24.5281 99.2414 24.143C99.2414 23.906 99.3225 23.6631 99.4849 23.4142C99.6532 23.1654 99.9418 22.9136 100.351 22.6589C100.116 22.4337 99.9478 22.2382 99.8456 22.0723C99.7434 21.9005 99.6923 21.702 99.6923 21.4769C99.6923 21.2932 99.7494 21.1125 99.8636 20.9348C99.9839 20.7511 100.149 20.6001 100.36 20.4816C100.576 20.3631 100.826 20.3038 101.108 20.3038C101.505 20.3038 101.812 20.3957 102.028 20.5793C102.245 20.7571 102.353 20.9822 102.353 21.2547C102.353 21.4976 102.239 21.7168 102.01 21.9124C101.788 22.1019 101.478 22.3093 101.081 22.5344C101.117 22.57 101.153 22.6055 101.189 22.6411C101.231 22.6766 101.274 22.7122 101.316 22.7477L102.632 24.0008C102.789 23.7756 102.933 23.5179 103.065 23.2276C103.197 22.9314 103.324 22.6085 103.444 22.2589L102.677 22.019V21.859H104.535V22.019L103.859 22.2501C103.697 22.6292 103.531 22.9847 103.363 23.3165C103.194 23.6423 103.02 23.9356 102.84 24.1963L103.66 24.9783L104.319 25.2094V25.3694H103.191L102.452 24.6673C102.223 24.9161 101.968 25.1087 101.685 25.245C101.409 25.3812 101.096 25.4494 100.747 25.4494ZM100.278 21.3436C100.278 21.5332 100.327 21.702 100.423 21.8501C100.525 21.9923 100.684 22.1642 100.901 22.3656C101.171 22.1819 101.385 22.0131 101.541 21.859C101.697 21.6991 101.776 21.5095 101.776 21.2903C101.776 21.1007 101.709 20.9407 101.577 20.8104C101.451 20.68 101.274 20.6149 101.045 20.6149C100.823 20.6149 100.639 20.683 100.495 20.8193C100.351 20.9496 100.278 21.1244 100.278 21.3436ZM99.8546 23.983C99.8546 24.3089 99.9598 24.5636 100.17 24.7473C100.387 24.9309 100.663 25.0228 101 25.0228C101.24 25.0228 101.463 24.9754 101.667 24.8806C101.878 24.7858 102.073 24.6495 102.254 24.4718L101.117 23.3876C101.003 23.2809 100.898 23.1832 100.802 23.0943C100.705 22.9995 100.615 22.9136 100.531 22.8366C100.254 23.0262 100.071 23.2039 99.9809 23.3698C99.8967 23.5357 99.8546 23.7401 99.8546 23.983Z" fill="white"/>
<path d="M107.336 25.3605V25.1827L108.057 24.9161V19.9395L107.336 19.6728V19.4951H109.455C110.165 19.4951 110.733 19.6225 111.16 19.8772C111.593 20.132 111.809 20.5349 111.809 21.0859C111.809 21.4117 111.701 21.702 111.484 21.9568C111.268 22.2056 110.967 22.4041 110.583 22.5522C110.204 22.7003 109.771 22.7744 109.284 22.7744H108.761V24.9161L109.572 25.1827V25.3605H107.336ZM108.761 19.9128V22.3567H109.491C109.966 22.3567 110.345 22.2471 110.628 22.0279C110.91 21.8027 111.051 21.5124 111.051 21.157C111.051 20.7185 110.907 20.4016 110.619 20.2061C110.336 20.0106 109.939 19.9128 109.428 19.9128H108.761Z" fill="white"/>
<path d="M112.867 25.3605V25.1827L113.507 24.9606V20.7837L112.867 20.5615V20.3838H114.688C115.248 20.3838 115.687 20.4964 116.005 20.7215C116.324 20.9466 116.483 21.2488 116.483 21.628C116.483 21.9301 116.387 22.1849 116.195 22.3922C116.008 22.5996 115.753 22.7596 115.428 22.8721L116.862 24.9872L117.421 25.1827V25.3605H116.294L114.788 23.0499H114.147V24.9517L114.743 25.1827V25.3605H112.867ZM114.643 20.7659H114.147V22.6677H114.688C115.025 22.6677 115.293 22.5818 115.491 22.41C115.69 22.2382 115.789 22.0101 115.789 21.7257C115.789 21.4176 115.69 21.1807 115.491 21.0148C115.293 20.8489 115.01 20.7659 114.643 20.7659Z" fill="white"/>
<path d="M118.02 25.3605V25.1827L118.615 24.9606V20.7837L118.02 20.5615V20.3838H119.869V20.5615L119.265 20.7837V24.9606L119.869 25.1827V25.3605H118.02Z" fill="white"/>
<path d="M121.039 25.3605V25.1827L121.67 24.9606L121.841 20.7926L121.156 20.5615V20.3838H122.626L124.403 24.3207L126.224 20.3838H127.64V20.5615L126.973 20.7659L127.108 24.9606L127.676 25.1827V25.3605H125.855V25.1827L126.441 24.9695L126.351 21.077L124.349 25.396H124.141L122.22 21.0859L122.13 24.9695L122.779 25.1827V25.3605H121.039Z" fill="white"/>
<path d="M128.519 25.3605V25.1827L128.961 25.0139L130.963 20.3394H131.261L133.245 24.9872L133.75 25.1827V25.3605H131.901V25.1827L132.55 24.9961L131.946 23.5653H130.034L129.439 25.005L130.115 25.1827V25.3605H128.519ZM130.188 23.1921H131.793L130.981 21.2636L130.188 23.1921Z" fill="white"/>
<path d="M136.116 25.4049L134.186 20.7482L133.681 20.5615V20.3838H135.547V20.5615L134.907 20.7482V20.7837L136.359 24.374H136.404L137.847 20.7748V20.7393L137.18 20.5615V20.3838H138.767V20.5615L138.325 20.7393L136.377 25.4049H136.116Z" fill="white"/>
<path d="M139.667 25.3605V25.1827L140.298 24.9606V20.7837L139.667 20.5615V20.3838H143.392V21.628H143.229L142.85 20.7659H140.948V22.5966H142.336L142.571 21.9834H142.724V23.5742H142.571L142.336 22.9699H140.948V24.9783H143.058L143.455 24.0008H143.608V25.3605H139.667Z" fill="white"/>
<path d="M144.828 25.3605V25.1827L145.468 24.9606V20.7837L144.828 20.5615V20.3838H146.65C147.209 20.3838 147.648 20.4964 147.966 20.7215C148.285 20.9466 148.444 21.2488 148.444 21.628C148.444 21.9301 148.348 22.1849 148.156 22.3922C147.969 22.5996 147.714 22.7596 147.389 22.8721L148.823 24.9872L149.382 25.1827V25.3605H148.255L146.749 23.0499H146.109V24.9517L146.704 25.1827V25.3605H144.828ZM146.605 20.7659H146.109V22.6677H146.65C146.986 22.6677 147.254 22.5818 147.452 22.41C147.651 22.2382 147.75 22.0101 147.75 21.7257C147.75 21.4176 147.651 21.1807 147.452 21.0148C147.254 20.8489 146.971 20.7659 146.605 20.7659Z" fill="white"/>
<path d="M149.647 25.3605V25.1827L150.089 25.0139L152.091 20.3394H152.389L154.373 24.9872L154.878 25.1827V25.3605H153.029V25.1827L153.679 24.9961L153.075 23.5653H151.163L150.567 25.005L151.244 25.1827V25.3605H149.647ZM151.316 23.1921H152.921L152.11 21.2636L151.316 23.1921Z" fill="white"/>
<path d="M50.697 34.2474V34.0697L51.3193 33.8475V29.6706L50.697 29.4485V29.2707H52.6901V29.4485L51.9687 29.6706V33.8653H53.9978L54.4487 32.5856H54.6111V34.2474H50.697Z" fill="white"/>
<path d="M55.2524 34.2474V34.0697L55.6943 33.9008L57.6964 29.2263H57.994L59.9781 33.8742L60.4831 34.0697V34.2474H58.6343V34.0697L59.2837 33.883L58.6794 32.4522H56.7675L56.1723 33.8919L56.8487 34.0697V34.2474H55.2524ZM56.9208 32.079H58.5261L57.7144 30.1505L56.9208 32.079Z" fill="white"/>
<path d="M62.6147 34.283L61.1807 29.644L60.5945 29.4485V29.2707H62.5606V29.4485L61.8842 29.6529L62.9033 33.0477H62.9484L64.3913 29.2352H64.6619L66.0778 33.0566H66.1139L67.0879 29.6618L66.4115 29.4485V29.2707H68.0979V29.4485L67.5658 29.6529L66.1499 34.283H65.8613L64.4184 30.4705H64.3643L62.9033 34.283H62.6147Z" fill="white"/>
<path d="M73.6381 34.3363C73.1571 34.3363 72.7272 34.2267 72.3484 34.0075C71.9696 33.7823 71.669 33.4772 71.4466 33.0921C71.2301 32.7011 71.1219 32.2567 71.1219 31.7591C71.1219 31.2614 71.2301 30.8171 71.4466 30.426C71.669 30.035 71.9696 29.7299 72.3484 29.5107C72.7272 29.2855 73.1571 29.173 73.6381 29.173C74.1251 29.173 74.5579 29.2855 74.9367 29.5107C75.3215 29.7299 75.6221 30.035 75.8386 30.426C76.061 30.8171 76.1723 31.2614 76.1723 31.7591C76.1723 32.2567 76.061 32.7011 75.8386 33.0921C75.6221 33.4772 75.3215 33.7823 74.9367 34.0075C74.5579 34.2267 74.1251 34.3363 73.6381 34.3363ZM73.8004 33.9453C74.3235 33.9453 74.7383 33.7675 75.0449 33.412C75.3576 33.0566 75.5139 32.5796 75.5139 31.9812C75.5139 31.4954 75.4267 31.0718 75.2524 30.7104C75.084 30.3431 74.8495 30.0587 74.5489 29.8573C74.2483 29.6558 73.9026 29.5551 73.5118 29.5551C72.9887 29.5551 72.5679 29.7329 72.2492 30.0883C71.9305 30.4438 71.7712 30.9178 71.7712 31.5102C71.7712 31.9961 71.8584 32.4226 72.0328 32.79C72.2071 33.1573 72.4476 33.4417 72.7542 33.6431C73.0609 33.8445 73.4096 33.9453 73.8004 33.9453Z" fill="white"/>
<path d="M77.3915 34.2474V34.0697L78.0318 33.8475V29.6706L77.4005 29.4485V29.2707H81.1162V30.5149H80.9448L80.5841 29.6618H78.6812V31.4836H80.07L80.2955 30.8704H80.4488V32.4611H80.2955L80.07 31.8568H78.6812V33.8475L79.4207 34.0697V34.2474H77.3915Z" fill="white"/>
<path d="M82.3323 34.2474V34.0697L82.9727 33.8475V29.6706L82.3414 29.4485V29.2707H86.057V30.5149H85.8856L85.5249 29.6618H83.622V31.4836H85.0108L85.2363 30.8704H85.3896V32.4611H85.2363L85.0108 31.8568H83.622V33.8475L84.3615 34.0697V34.2474H82.3323Z" fill="white"/>
<path d="M87.3182 34.2474V34.0697L87.9135 33.8475V29.6706L87.3182 29.4485V29.2707H89.167V29.4485L88.5628 29.6706V33.8475L89.167 34.0697V34.2474H87.3182Z" fill="white"/>
<path d="M93.0786 34.3363C92.5616 34.3363 92.1046 34.2326 91.7078 34.0252C91.311 33.812 90.9983 33.5216 90.7699 33.1543C90.5414 32.7811 90.4272 32.3575 90.4272 31.8835C90.4272 31.4925 90.4993 31.134 90.6436 30.8082C90.7879 30.4764 90.9863 30.189 91.2388 29.9461C91.4974 29.7032 91.789 29.5136 92.1136 29.3774C92.4443 29.2411 92.796 29.173 93.1688 29.173C93.5476 29.173 93.8482 29.2115 94.0707 29.2885C94.2991 29.3596 94.5216 29.4455 94.738 29.5462L94.7651 30.7548H94.6118L94.1879 29.8928C94.0135 29.7743 93.8422 29.6914 93.6738 29.644C93.5055 29.5907 93.3251 29.564 93.1327 29.564C92.7239 29.564 92.3631 29.6588 92.0505 29.8484C91.7439 30.032 91.5034 30.2838 91.329 30.6038C91.1547 30.9237 91.0675 31.2762 91.0675 31.6613C91.0675 32.1412 91.1547 32.553 91.329 32.8966C91.5034 33.2402 91.7469 33.5039 92.0595 33.6875C92.3782 33.8712 92.7449 33.963 93.1598 33.963C93.5626 33.963 93.8963 33.886 94.1608 33.732L94.6929 32.8077H94.8553L94.7831 33.9541C94.5607 34.0667 94.3202 34.1585 94.0616 34.2296C93.8031 34.3007 93.4754 34.3363 93.0786 34.3363Z" fill="white"/>
<path d="M96.2741 34.2474V34.0697L96.9054 33.8475V29.6706L96.2741 29.4485V29.2707H99.9987V30.5149H99.8364L99.4576 29.6529H97.5547V31.4836H98.9435L99.178 30.8704H99.3313V32.4611H99.178L98.9435 31.8568H97.5547V33.8653H99.665L100.062 32.8877H100.215V34.2474H96.2741Z" fill="white"/>
<path d="M102.986 34.3363C102.668 34.3363 102.394 34.3067 102.166 34.2474C101.943 34.1882 101.712 34.0993 101.471 33.9808L101.39 32.79H101.552L101.985 33.6609C102.16 33.7853 102.334 33.8712 102.508 33.9186C102.683 33.9601 102.86 33.9808 103.04 33.9808C103.75 33.9808 104.105 33.6786 104.105 33.0743C104.105 32.8551 104.044 32.6833 103.924 32.5589C103.81 32.4345 103.642 32.3219 103.419 32.2212C103.203 32.1145 102.941 31.9901 102.635 31.8479C102.268 31.6761 102 31.5013 101.832 31.3236C101.664 31.1399 101.579 30.8822 101.579 30.5504C101.579 30.3135 101.651 30.0913 101.796 29.8839C101.94 29.6766 102.129 29.5077 102.364 29.3774C102.604 29.247 102.863 29.1819 103.14 29.1819C103.38 29.1819 103.6 29.2115 103.798 29.2707C103.996 29.33 104.198 29.41 104.402 29.5107L104.474 30.6571H104.312L103.96 29.8484C103.828 29.7417 103.699 29.6647 103.572 29.6173C103.446 29.564 103.302 29.5373 103.14 29.5373C102.827 29.5373 102.583 29.6173 102.409 29.7773C102.241 29.9313 102.157 30.1298 102.157 30.3727C102.157 30.5445 102.196 30.6897 102.274 30.8082C102.358 30.9207 102.481 31.0274 102.644 31.1281C102.812 31.2229 103.025 31.3325 103.284 31.4569C103.615 31.611 103.882 31.7561 104.086 31.8924C104.291 32.0227 104.441 32.1708 104.537 32.3367C104.634 32.5026 104.682 32.7129 104.682 32.9677C104.682 33.2343 104.604 33.4713 104.447 33.6786C104.297 33.8801 104.093 34.0401 103.834 34.1585C103.581 34.277 103.299 34.3363 102.986 34.3363Z" fill="white"/>
</svg>
