<svg width="76" height="76" viewBox="0 0 76 76" fill="none" xmlns="http://www.w3.org/2000/svg">
<path d="M38 76C58.9868 76 76 58.9868 76 38C76 17.0132 58.9868 0 38 0C17.0132 0 0 17.0132 0 38C0 58.9868 17.0132 76 38 76Z" fill="#1E1954"/>
<path d="M15.5583 40.9663C15.3279 41.5251 15.0974 42.0839 14.8695 42.644C14.7446 42.9504 14.6236 43.2594 14.5 43.5671C14.2116 44.283 14.0931 45.0285 14.1768 45.792C14.2579 46.5297 14.594 47.1503 15.1811 47.619C15.4386 47.825 15.7335 47.955 16.0682 47.9808C16.2279 47.9962 16.3862 48.0117 16.5459 48.0271C16.5459 48.3116 16.5459 48.5962 16.5472 48.8807C16.5253 48.882 16.5047 48.8859 16.4828 48.8859C14.1961 48.8859 11.9108 48.8859 9.62415 48.8846V48.04C10.4314 47.9061 11.1048 47.5391 11.6404 46.9404C12.1657 46.352 12.637 45.7211 12.9588 44.9963C13.2769 44.2791 13.5794 43.5542 13.8653 42.8229C15.4051 38.8934 16.9373 34.96 18.4785 31.0305C18.539 30.876 18.5184 30.7665 18.4411 30.6314C18.0446 29.9309 17.4201 29.6245 16.6437 29.5692C16.5266 29.5563 16.4107 29.5421 16.2935 29.5292V28.8018C17.4858 28.3666 18.6819 27.9288 19.8793 27.4911C20.3557 27.495 20.8333 27.4975 21.3097 27.5014C21.8041 28.7619 22.2985 30.0224 22.7942 31.2816C24.4539 35.5034 26.1148 39.7251 27.7744 43.9482C28.0036 44.5315 28.2302 45.1147 28.4632 45.6967C28.6963 46.2799 29.0271 46.7988 29.4894 47.2288C29.7082 47.4323 29.9567 47.5868 30.2426 47.6833C30.5155 47.776 30.7833 47.8803 31.0537 47.9795C31.1207 48.0039 31.185 48.0348 31.2584 48.0657C31.2584 48.3271 31.2584 48.5782 31.2584 48.8292C31.1722 48.8331 31.0859 48.8421 30.9996 48.8421C29.7739 48.8421 28.5495 48.8421 27.3238 48.8421C25.695 48.8421 24.0663 48.8434 22.4363 48.8447V48.076C22.5998 48.058 22.7698 48.04 22.9384 48.0181C23.2964 47.9717 23.6466 47.8932 23.9736 47.7374C24.0702 47.6911 24.1642 47.637 24.2543 47.5765C24.5993 47.3434 24.7436 47.0164 24.6727 46.6083C24.629 46.361 24.5852 46.1087 24.4951 45.8756C23.8938 44.3036 23.2796 42.7367 22.6693 41.1697C22.6423 41.0989 22.6024 41.0333 22.5676 40.9637C22.4955 40.9496 22.4247 40.9213 22.3526 40.9213C20.8308 40.9187 19.3089 40.92 17.7871 40.92C17.1085 40.92 16.4313 40.92 15.7528 40.9213C15.6884 40.9213 15.6227 40.9483 15.5583 40.9637V40.9663ZM14.164 48.0619C14.1189 48.0284 14.0738 47.9949 14.0288 47.9614C13.5833 47.6241 13.264 47.2044 13.17 46.6392C13.1726 46.634 13.1777 46.6276 13.1764 46.6237C13.1739 46.6134 13.1687 46.6031 13.1648 46.5928C13.1648 46.4048 13.1623 46.2168 13.161 46.0289C13.1661 46.0044 13.1764 45.9799 13.1764 45.9555C13.1764 45.9452 13.1545 45.9349 13.1417 45.9246C13.1378 45.9362 13.1339 45.9478 13.1288 45.9593C13.1043 45.9941 13.0773 46.0289 13.0554 46.0649C12.6138 46.7769 12.0988 47.4284 11.4614 47.9782C11.4357 48.0001 11.4202 48.0335 11.3996 48.0606C11.4511 48.076 11.5039 48.1031 11.5554 48.1031C12.373 48.1056 13.1906 48.1056 14.0082 48.1031C14.0597 48.1031 14.1112 48.0747 14.1627 48.0593L14.164 48.0619ZM25.2547 46.9855C25.1826 47.4245 24.9032 47.7258 24.5684 48.0001C24.732 48.0181 24.889 48.0323 25.0423 48.0142C25.5289 47.9563 25.8676 47.7039 26.0375 47.2353C26.1173 47.0138 26.1418 46.7872 26.1225 46.5542C26.0774 46.0186 25.9422 45.5036 25.7478 45.0053C24.0985 40.7938 22.4466 36.5823 20.7908 32.3734C20.5462 31.7502 20.281 31.1348 20.0106 30.5219C19.8703 30.2039 19.6784 29.9155 19.4299 29.6683C19.2523 29.4919 19.0463 29.3593 18.8029 29.3026C18.6381 29.264 18.4656 29.2421 18.2956 29.2408C18.1476 29.2408 17.9995 29.2782 17.8527 29.2988C17.8501 29.3155 17.8463 29.331 17.8437 29.3477C17.9879 29.4404 18.127 29.5408 18.2763 29.6219C18.4591 29.7211 18.6033 29.855 18.7218 30.0224C18.9355 30.3236 19.1055 30.6481 19.2394 30.9919C20.7806 34.9446 22.3217 38.896 23.8603 42.85C24.2942 43.9637 24.7204 45.0812 25.1491 46.1975C25.2405 46.4357 25.3023 46.6778 25.2598 46.9366C25.2586 46.9533 25.256 46.97 25.2547 46.9868V46.9855ZM15.9098 39.9131C15.9665 39.9324 16.0219 39.9672 16.0785 39.9672C18.0368 39.9698 19.9952 39.9698 21.9535 39.9672C22.0127 39.9672 22.0719 39.9376 22.1312 39.9221C22.1247 39.8938 22.1234 39.8655 22.1131 39.8397C21.1102 37.2479 20.1059 34.6562 19.1016 32.0644C19.0887 32.0296 19.063 32 19.0321 31.9472C17.9853 34.6188 16.9489 37.266 15.9124 39.9131H15.9098Z" fill="#E6BA3D"/>
<path d="M51.0403 40.9599C50.9244 41.238 50.8072 41.5161 50.6926 41.7955C50.4467 42.4019 50.1956 43.0071 49.9587 43.6173C49.6742 44.3538 49.5454 45.1199 49.669 45.904C49.7811 46.6199 50.121 47.2198 50.7119 47.6589C50.9514 47.8378 51.2231 47.9512 51.5244 47.9795C51.6866 47.9936 51.8475 48.0065 52.0098 48.0207C52.0098 48.3104 52.0098 48.6001 52.0085 48.8885C49.7939 48.8885 47.5781 48.8885 45.3636 48.8872C45.2696 48.8872 45.1769 48.8782 45.0829 48.873C45.0867 48.6052 45.0906 48.3374 45.0945 48.0683C45.1035 48.0567 45.1138 48.0451 45.1228 48.0323C45.9455 47.8971 46.6176 47.4992 47.1713 46.8825C47.9824 45.9774 48.5257 44.9203 48.9635 43.7976C50.627 39.532 52.293 35.2677 53.9629 31.0048C54.0132 30.876 54.0003 30.7794 53.9359 30.6623C53.5522 29.9696 52.9522 29.6361 52.1797 29.5769C52.0484 29.5627 51.9184 29.5498 51.787 29.5357C51.7754 29.4546 51.7561 29.3735 51.7536 29.2923C51.7497 29.143 51.7548 28.9936 51.7574 28.8443C51.7677 28.8301 51.7793 28.816 51.7896 28.8018C52.454 28.5559 53.1183 28.31 53.784 28.0653C54.3016 27.8748 54.8191 27.6855 55.3367 27.4962C55.459 27.4962 55.5814 27.4988 55.7024 27.5001C56.068 27.504 56.435 27.5091 56.8006 27.5143C57.1933 28.5198 57.5835 29.5267 57.9787 30.5309C59.9602 35.5755 61.9443 40.62 63.9271 45.6658C64.1511 46.2362 64.4679 46.7473 64.9082 47.1774C65.1425 47.4065 65.4129 47.5803 65.7258 47.6885C66.058 47.8031 66.3863 47.9306 66.7223 48.0554V48.8421C66.6863 48.8421 66.6502 48.8447 66.6142 48.8447C63.7739 48.8447 60.9323 48.8447 58.092 48.8447C58.0277 48.8447 57.962 48.8408 57.8976 48.8383V48.0863C58.1667 48.049 58.4229 48.0245 58.6753 47.9756C58.8787 47.9357 59.0783 47.8713 59.2766 47.8121C59.3512 47.7902 59.4233 47.7542 59.4942 47.7194C60.0555 47.4413 60.2564 47.0628 60.1212 46.4525C60.0426 46.0958 59.9255 45.7456 59.7941 45.4044C59.2341 43.9482 58.6637 42.4959 58.0959 41.0423C58.0856 41.0153 58.0689 40.9908 58.056 40.9663C58.0058 40.9509 57.9556 40.9238 57.9053 40.9238C55.6689 40.9213 53.4338 40.9213 51.1973 40.9238C51.1446 40.9238 51.0918 40.9483 51.039 40.9612L51.0403 40.9599ZM49.6549 48.0516C48.894 47.5713 48.5283 46.8902 48.6184 45.9735C48.5592 46.034 48.5219 46.092 48.4807 46.1486C48.2038 46.5259 47.9425 46.9173 47.6425 47.2752C47.4082 47.5559 47.1249 47.7967 46.8635 48.0542C46.906 48.0722 46.9472 48.1057 46.9897 48.1057C47.8369 48.1082 48.6841 48.1082 49.5313 48.1057C49.5725 48.1057 49.6137 48.0709 49.6549 48.0529V48.0516ZM57.6221 39.9119C57.6105 39.8848 57.5989 39.8591 57.5886 39.832C56.6346 37.369 55.6818 34.9047 54.7277 32.4416C54.6659 32.2833 54.6028 32.1262 54.5256 31.9318C54.4831 32.0232 54.4548 32.0785 54.4329 32.1352C53.5651 34.3536 52.6973 36.5733 51.8308 38.7917C51.684 39.1664 51.545 39.5436 51.4021 39.9196C51.4754 39.935 51.5488 39.9633 51.6235 39.9646C53.5535 39.9672 55.4822 39.9672 57.4122 39.9659C57.4624 39.9659 57.5139 39.9685 57.5629 39.9595C57.586 39.9556 57.6041 39.9273 57.6234 39.9093L57.6221 39.9119ZM53.3385 29.2846C53.3308 29.3039 53.3243 29.3232 53.3166 29.3426C53.4672 29.4391 53.614 29.5408 53.7685 29.6284C53.9295 29.7185 54.0608 29.8357 54.1702 29.9825C54.4033 30.2979 54.5822 30.6417 54.7239 31.006C56.0925 34.5145 57.4611 38.0231 58.8259 41.5328C59.4208 43.0624 60.0104 44.5946 60.5976 46.128C60.6658 46.3083 60.7263 46.4988 60.7431 46.6894C60.7855 47.1761 60.5551 47.5482 60.1971 47.8546C60.1456 47.8984 60.0928 47.9421 60.0053 48.0155C60.2074 48.0155 60.3645 48.0297 60.5177 48.013C61.0147 47.9563 61.3572 47.6936 61.522 47.216C61.598 46.9958 61.6327 46.7692 61.6057 46.5349C61.5452 46.025 61.4293 45.5267 61.2426 45.0491C60.0787 42.071 58.9161 39.093 57.7457 36.1175C57.0685 34.3948 56.3796 32.6772 55.6921 30.9584C55.5311 30.5554 55.3342 30.1717 55.0599 29.8318C54.6041 29.2692 54.0132 29.1469 53.3411 29.2846H53.3385Z" fill="#E6BA3D"/>
<path d="M28.3218 21.1719C28.2227 21.1757 28.1236 21.1796 28.0244 21.1835C27.8918 21.1938 27.7579 21.2041 27.6253 21.2157C27.5558 21.2195 27.4875 21.2234 27.418 21.2272C27.3137 21.2375 27.2094 21.2478 27.1038 21.2581C27.0498 21.262 26.9957 21.2672 26.9403 21.271C26.836 21.2826 26.733 21.2929 26.6287 21.3045C26.2631 21.3496 25.8974 21.3972 25.5305 21.4397C25.1236 21.486 24.7168 21.5272 24.3099 21.5723C23.9211 21.6148 23.5322 21.6611 23.1421 21.7036C22.9941 21.7204 22.846 21.7332 22.6979 21.7487C22.6078 21.7577 22.5164 21.768 22.4263 21.777C22.358 21.7822 22.2898 21.7873 22.2215 21.7912C22.1018 21.8015 21.9834 21.8105 21.8636 21.8208C21.8391 21.8234 21.8134 21.8247 21.7889 21.8272C21.7722 21.8272 21.7567 21.8285 21.74 21.8298C21.6692 21.8311 21.5997 21.8337 21.5289 21.835C21.3241 21.8453 21.1181 21.8556 20.9134 21.8671C20.5568 21.8671 20.1988 21.8671 19.8422 21.8671C19.6233 21.8556 19.4044 21.8453 19.1843 21.8337C19.1006 21.8298 19.0169 21.8272 18.9332 21.8234C18.8148 21.8131 18.6963 21.8015 18.5778 21.7912C18.1774 21.7796 17.7834 21.7152 17.3882 21.656C15.9552 21.4423 14.5556 21.1075 13.2269 20.5101C12.5278 20.1959 11.8724 19.8097 11.2982 19.296C11.0716 19.0938 10.8669 18.8711 10.7175 18.6046C10.6222 18.4333 10.554 18.2531 10.5669 18.0496C10.5836 17.8011 10.7162 17.6608 10.9673 17.6299C11.0664 17.617 11.1643 17.599 11.2621 17.5836C11.4656 17.5707 11.669 17.5578 11.8711 17.5449C12.4158 17.4767 12.86 17.6608 13.299 17.993C14.0689 18.5724 14.9766 18.8646 15.914 19.0565C16.5204 19.1814 17.132 19.2689 17.7525 19.2779C17.8015 19.2869 17.8504 19.305 17.8993 19.305C18.386 19.3101 18.8727 19.3114 19.3594 19.314C19.4598 19.314 19.5589 19.314 19.6594 19.314C19.9091 19.3153 20.1602 19.323 20.41 19.3178C20.5954 19.314 20.7795 19.2921 20.9649 19.2792C21.6885 19.2728 22.3941 19.1646 23.0752 18.9071C23.8876 18.5994 24.7013 18.2968 25.5125 17.9878C26.1472 17.7458 26.7987 17.5836 27.4785 17.5372C27.6291 17.5269 27.7785 17.5102 27.9291 17.496C28.3489 17.496 28.7686 17.496 29.1883 17.496C29.4471 17.5127 29.7059 17.5243 29.9647 17.5462C31.7969 17.7007 33.5775 18.0715 35.2719 18.8041C35.3376 18.8325 35.4058 18.8569 35.474 18.8801C35.5333 18.9007 35.5951 18.9174 35.6607 18.9367C35.12 20.1766 35.2835 21.28 36.2401 22.2586C36.2401 22.3139 36.2414 22.386 36.2401 22.4581C36.2401 22.4929 36.2311 22.5276 36.2221 22.5894C36.074 22.5611 35.9337 22.5418 35.7972 22.5058C34.8779 22.265 33.9612 22.0139 33.0393 21.7822C32.4393 21.6315 31.8342 21.4938 31.2265 21.3779C30.8132 21.2993 30.3909 21.2684 29.9737 21.2157C29.854 21.2054 29.7355 21.1963 29.6158 21.186C29.5025 21.1809 29.3892 21.1757 29.2746 21.1706C29.0107 21.1603 28.7454 21.1474 28.4815 21.141C28.4274 21.1397 28.3721 21.1629 28.3167 21.1745L28.3218 21.1719Z" fill="#E6BA3D"/>
<path d="M53.1721 21.7037C52.7317 21.6547 52.2914 21.6045 51.8498 21.5569C51.3528 21.5028 50.8545 21.4513 50.3576 21.3972C50.2597 21.3869 50.1618 21.3638 50.0653 21.347C49.9752 21.3367 49.8863 21.3264 49.7962 21.3148C49.5979 21.2955 49.3996 21.2762 49.2014 21.2582C49.1112 21.2492 49.0198 21.2389 48.9297 21.2298C48.8602 21.226 48.7919 21.2221 48.7224 21.2183C48.6039 21.208 48.4855 21.1977 48.367 21.1861C48.2692 21.1822 48.1726 21.1783 48.0748 21.1745C48.0336 21.1642 47.9937 21.1449 47.9525 21.1449C47.5237 21.1423 47.095 21.1436 46.6662 21.1449C46.625 21.1449 46.5851 21.1655 46.5452 21.1758C46.4615 21.1796 46.3778 21.1822 46.2954 21.1861C46.1911 21.1977 46.0868 21.208 45.9838 21.2195C45.0504 21.3071 44.1362 21.4899 43.2311 21.7294C42.3685 21.9573 41.5084 22.1916 40.6458 22.4195C40.4243 22.4775 40.1977 22.5187 39.9531 22.5714C39.926 22.3513 39.8771 22.1607 40.0561 21.9689C40.4835 21.5118 40.6419 20.9324 40.696 20.3286C40.732 19.9153 40.5943 19.5187 40.4604 19.1299C40.4423 19.0758 40.4166 19.0243 40.3947 18.9728C41.3771 18.593 42.3491 18.2106 43.374 17.9814C44.3718 17.7574 45.3787 17.5913 46.401 17.5372C46.5812 17.5282 46.7602 17.5115 46.9392 17.4973C47.3731 17.4973 47.807 17.4973 48.2409 17.4973C49.2374 17.5424 50.1825 17.787 51.1043 18.1694C51.8807 18.4913 52.6815 18.7565 53.4772 19.0333C53.8377 19.1595 54.2176 19.2174 54.5999 19.2355C54.7454 19.2483 54.8922 19.2599 55.0377 19.2728C55.1227 19.2754 55.2064 19.278 55.2913 19.2805C55.4201 19.2934 55.5476 19.3179 55.6763 19.3179C56.4257 19.3217 57.175 19.3204 57.923 19.3179C58.0441 19.3179 58.1651 19.2947 58.2861 19.2818C58.3557 19.2792 58.4265 19.278 58.496 19.2754C58.6415 19.2625 58.7883 19.2496 58.9338 19.238C60.4904 19.1029 61.9607 18.7205 63.2238 17.7407C63.301 17.6801 63.395 17.6428 63.4813 17.5939C63.9126 17.5939 64.3426 17.5939 64.774 17.5939C64.9014 17.6029 65.0315 17.6029 65.1577 17.6222C65.4538 17.666 65.5941 17.8359 65.5851 18.1321C65.5851 18.1668 65.5722 18.2016 65.5645 18.2364C65.5619 18.2531 65.5594 18.2698 65.5568 18.2866C65.4924 18.5531 65.3405 18.7707 65.1641 18.9728C64.7714 19.4234 64.2886 19.7621 63.7774 20.0621C62.9032 20.5758 61.962 20.9324 60.9835 21.1822C60.3088 21.3535 59.6226 21.4848 58.9376 21.6148C58.5797 21.6831 58.2127 21.7075 57.8509 21.7526C57.7608 21.7616 57.6707 21.7719 57.5806 21.7809C57.4982 21.7861 57.4158 21.7925 57.3321 21.7976C57.2123 21.8079 57.0939 21.817 56.9741 21.8273C56.848 21.8324 56.7218 21.8376 56.5956 21.8427C56.0446 21.8427 55.4948 21.8427 54.9437 21.8427C54.8175 21.8376 54.6914 21.8337 54.5652 21.8285C54.4313 21.8182 54.2987 21.8079 54.1648 21.7989C54.0952 21.7951 54.0257 21.7912 53.9575 21.7873C53.8532 21.777 53.7489 21.7655 53.6459 21.7552C53.5777 21.7513 53.5094 21.7461 53.4399 21.7423C53.3498 21.732 53.2596 21.7217 53.1695 21.7114L53.1721 21.7037Z" fill="#E6BA3D"/>
<path d="M39.7473 68.4023C38.6555 68.4023 37.5624 68.4023 36.4705 68.4023C36.2645 68.392 36.0598 68.383 35.8538 68.3727C35.7688 68.3701 35.6852 68.3675 35.6002 68.3649C35.4392 68.3521 35.2796 68.3405 35.1186 68.3276C35.0491 68.3238 34.9796 68.3212 34.9114 68.3173C34.8071 68.307 34.7028 68.2954 34.5985 68.2851C34.5302 68.28 34.462 68.2761 34.3925 68.271C34.3024 68.2607 34.2122 68.2504 34.1221 68.2401C33.7539 68.1963 33.3856 68.1564 33.0187 68.1074C31.9642 67.9658 30.9239 67.7534 29.8913 67.5049C29.8218 67.4881 29.7522 67.4688 29.6479 67.4418C29.7188 67.3954 29.7677 67.3594 29.8179 67.3311C31.5058 66.3654 33.0354 65.1964 34.3835 63.7917C35.044 63.1028 35.6349 62.3586 36.1422 61.5488C36.1796 61.4883 36.2195 61.4278 36.2542 61.3737C37.4967 62.2968 38.7211 62.1578 39.9469 61.3518C41.5833 63.9822 43.8983 65.8787 46.575 67.4431C46.2956 67.5113 46.0523 67.5809 45.8038 67.6298C45.1188 67.7663 44.4326 67.9002 43.7451 68.0212C43.3459 68.092 42.9429 68.1383 42.5399 68.1924C42.3919 68.213 42.2425 68.2246 42.0944 68.2401C42.0043 68.2504 41.9142 68.2607 41.8241 68.271C41.7558 68.2761 41.6876 68.28 41.6194 68.2851C41.5151 68.2954 41.4108 68.307 41.3065 68.3173C41.237 68.3212 41.1674 68.3238 41.0992 68.3276C40.9383 68.3405 40.7786 68.3521 40.6177 68.3649C40.5327 68.3675 40.449 68.3701 40.364 68.3727C40.158 68.383 39.9533 68.392 39.7473 68.4023Z" fill="#E6BA3D"/>
<path d="M36.8527 22.6515C37.7101 23.0248 38.556 22.9849 39.4071 22.542C39.4226 22.9489 39.4393 23.321 39.4522 23.6944C39.4934 24.8686 39.5359 26.0428 39.5719 27.217C39.6092 28.4131 39.6389 29.6092 39.6723 30.8054C39.7122 32.21 39.7509 33.616 39.7946 35.0207C39.7998 35.1713 39.7689 35.3027 39.6852 35.425C39.156 36.1975 38.6269 36.97 38.0964 37.7425C38.0771 37.7709 38.0501 37.794 38.0114 37.8365C37.423 37.0614 36.8874 36.2709 36.375 35.4649C36.3673 35.4469 36.3595 35.4289 36.3518 35.4108C36.366 34.6473 36.3763 33.8838 36.393 33.1216C36.4162 32.1135 36.4419 31.1053 36.4728 30.0972C36.505 29.0672 36.5436 28.0385 36.581 27.0097C36.6157 26.0531 36.6492 25.0952 36.6891 24.1386C36.7097 23.6416 36.7394 23.1459 36.7651 22.6502C36.7947 22.6502 36.823 22.6502 36.8527 22.6502V22.6515Z" fill="#E6BA3D"/>
<path d="M36.3801 46.9444C36.9234 46.4526 37.4668 45.9608 38.0178 45.4625C38.6268 46.0136 39.2333 46.5633 39.8397 47.1131C39.8487 47.1298 39.859 47.1466 39.868 47.162C39.8603 48.2229 39.8513 49.2826 39.8435 50.3435C39.8384 51.0001 39.8358 51.6568 39.832 52.3134C39.832 52.392 39.832 52.4692 39.832 52.5542C39.2629 52.6675 38.7144 52.7679 38.1543 52.7885C37.9921 52.7988 37.8311 52.8091 37.6689 52.8194C37.3844 52.8194 37.0998 52.8194 36.814 52.8194C36.6737 52.804 36.5333 52.7872 36.393 52.7718C36.3891 52.4911 36.3827 52.2117 36.3814 51.931C36.3685 50.3783 36.3569 48.8255 36.3453 47.2715C36.3453 47.1775 36.3466 47.0848 36.3479 46.9908C36.3582 46.9753 36.3698 46.9586 36.3801 46.9431V46.9444Z" fill="#E6BA3D"/>
<path d="M38.0642 9.40539C38.2174 10.541 38.6114 11.5774 39.326 12.4813C39.353 12.5148 39.3762 12.5534 39.4097 12.5804C39.5784 12.7182 39.6003 12.8727 39.5462 13.0903C39.4033 13.6619 39.2758 14.2388 39.1805 14.8194C39.111 15.2443 39.102 15.6782 39.0646 16.1095C39.0363 16.4469 39.0131 16.7842 38.9732 17.1202C38.9294 17.4975 38.8303 17.5953 38.4569 17.679C38.3114 17.6777 38.1659 17.6765 38.0205 17.6739C37.8814 17.5863 37.7295 17.6481 37.584 17.6353C37.2106 17.5516 37.1089 17.4537 37.069 17.0778C37.02 16.6271 36.9711 16.1752 36.9531 15.7233C36.9235 14.9778 36.7883 14.2516 36.6171 13.5293C36.5668 13.3195 36.5179 13.1096 36.4638 12.901C36.4407 12.8096 36.4561 12.7439 36.5231 12.6693C37.3046 11.8066 37.7424 10.7805 37.9381 9.6423C37.9535 9.5496 37.9664 9.45689 37.9805 9.36548C38.0076 9.37964 38.0346 9.39381 38.0629 9.40668L38.0642 9.40539Z" fill="#E6BA3D"/>
<path d="M36.5994 58.2784C36.6548 58.2797 36.7089 58.2823 36.7642 58.2836C36.9097 58.2977 37.0565 58.3106 37.202 58.3248C37.2573 58.3248 37.314 58.3248 37.3694 58.3261C37.8187 58.393 38.2681 58.3904 38.7174 58.3261C38.9852 58.3042 39.253 58.281 39.5208 58.2591C39.5981 58.2527 39.6753 58.2475 39.7526 58.2411C39.7642 58.2553 39.7757 58.2694 39.7886 58.2836C39.7886 59.069 39.786 59.8544 39.7899 60.6385C39.7899 60.7402 39.7371 60.7968 39.674 60.8561C39.3599 61.147 38.9916 61.3324 38.5745 61.4238C38.0917 61.5294 37.6153 61.5191 37.1556 61.3183C36.8814 61.1985 36.6368 61.0376 36.4642 60.7852C36.4565 60.7724 36.4475 60.7608 36.4398 60.7479C36.4346 60.7273 36.4243 60.7067 36.4243 60.6861C36.4243 59.8994 36.4243 59.1115 36.4243 58.3248C36.4823 58.3093 36.5402 58.2926 36.5981 58.2771L36.5994 58.2784Z" fill="#E6BA3D"/>
<path d="M39.759 20.4922C39.6405 21.3549 38.8989 22.0038 38.0285 22.0051C37.1569 22.0064 36.423 21.3574 36.2814 20.5038C36.141 19.6566 36.6972 18.5532 37.9152 18.4644C38.832 18.3974 39.6058 19.0502 39.7525 19.9244C39.7809 20.0918 39.7628 20.2669 39.7654 20.4394C39.7628 20.4562 39.7603 20.4742 39.759 20.4909V20.4922Z" fill="#E6BA3D"/>
<path d="M9.53296 42.1807C8.64586 42.1279 7.78965 41.9425 6.97722 41.5742C6.42488 41.3244 5.94463 40.9768 5.58283 40.4798C5.31374 40.1116 5.15151 39.7009 5.08714 39.2515C5.0704 39.1382 5.0704 39.0211 5.08199 38.9078C5.09615 38.7687 5.14508 38.64 5.29057 38.5782C5.36911 38.5807 5.44893 38.5833 5.52747 38.5833C8.44372 38.5833 11.3587 38.5833 14.2749 38.5833C14.4977 38.5833 14.7217 38.5859 14.9444 38.5872C14.7886 38.9966 14.6328 39.406 14.4758 39.8142C14.2247 40.4644 13.9672 41.1133 13.7213 41.7661C13.6724 41.8961 13.6054 41.9656 13.4638 41.9824C13.0634 42.0287 12.6642 42.0841 12.2651 42.1369C12.1338 42.1498 12.0024 42.1626 11.8711 42.1755C11.8157 42.1768 11.7591 42.1794 11.7037 42.1807C11.5415 42.191 11.3806 42.2012 11.2183 42.2115C10.8179 42.2115 10.4175 42.2128 10.0171 42.2141C9.85613 42.2025 9.69519 42.1909 9.53425 42.1794L9.53296 42.1807Z" fill="#E6BA3D"/>
<path d="M66.1572 42.2142C65.7427 42.2142 65.3281 42.2117 64.9135 42.2117C64.7513 42.2014 64.589 42.1911 64.4281 42.1808C64.3586 42.1769 64.289 42.1743 64.2208 42.1705C64.1165 42.1602 64.0122 42.1486 63.9079 42.1383C63.6311 42.1112 63.3556 42.0842 63.0698 42.0559C62.614 40.8932 62.1633 39.7448 61.7114 38.595C61.8054 38.5911 61.8981 38.5847 61.9921 38.5847C64.8556 38.5847 67.719 38.5847 70.5812 38.5847C70.6675 38.5847 70.7537 38.5795 70.84 38.5757C70.9868 38.6182 71.0434 38.7328 71.0576 38.868C71.0692 38.9877 71.0614 39.11 71.0614 39.231C71.0601 39.2478 71.0589 39.2632 71.0563 39.28C70.9327 40.1156 70.4833 40.7413 69.8048 41.2164C69.2228 41.6233 68.5675 41.8602 67.8787 41.9979C67.4564 42.0816 67.025 42.1228 66.5976 42.182C66.4508 42.1923 66.3027 42.2039 66.156 42.2142H66.1572Z" fill="#E6BA3D"/>
<path d="M10.2669 21.6945C10.1961 21.9585 10.1265 22.2237 10.0557 22.4877C8.67035 27.6764 7.28626 32.8664 5.90088 38.0551C5.89573 38.0757 5.89187 38.0976 5.88543 38.1182C5.83264 38.2894 5.76183 38.3268 5.5996 38.2701C5.47729 38.2276 5.44767 38.1749 5.48244 38.0358C5.54939 37.7706 5.62149 37.5066 5.6923 37.2427C6.77125 33.2011 7.8502 29.1609 8.92914 25.1194C9.23171 23.985 9.53428 22.852 9.83685 21.7177C9.84844 21.6765 9.85745 21.634 9.8729 21.5928C9.91539 21.4847 9.97075 21.4602 10.0956 21.4898C10.2334 21.522 10.2798 21.5774 10.2669 21.6933V21.6945Z" fill="#E6BA3D"/>
<path d="M70.6633 38.0978C70.6659 38.2034 70.6131 38.2562 70.4843 38.2819C70.3569 38.3077 70.3015 38.2858 70.2654 38.1738C70.2075 37.9884 70.1586 37.8004 70.1097 37.6124C68.7693 32.5898 67.429 27.5685 66.09 22.5458C66.0192 22.2819 65.9484 22.0179 65.8801 21.7527C65.8351 21.5737 65.9638 21.4476 66.1467 21.4836C66.2355 21.5016 66.2535 21.5725 66.2728 21.6407C66.3514 21.9252 66.4273 22.2111 66.5033 22.4956C67.8732 27.629 69.2432 32.7623 70.6118 37.8957C70.6298 37.9652 70.6465 38.0347 70.6633 38.0991V38.0978Z" fill="#E6BA3D"/>
<path d="M15.3087 37.6768C15.2649 37.5584 15.2314 37.4902 15.2134 37.4181C14.6894 35.4559 14.1667 33.4924 13.6426 31.5302C12.8302 28.4891 12.0165 25.4479 11.2041 22.4081C11.1448 22.1854 11.0818 21.9639 11.0251 21.7399C10.9878 21.5892 11.0303 21.5261 11.1796 21.4914C11.3174 21.4592 11.3702 21.4875 11.4126 21.6369C11.5079 21.9768 11.598 22.318 11.6895 22.6592C12.959 27.4114 14.2285 32.165 15.5018 36.9159C15.5353 37.0421 15.5301 37.1528 15.4761 37.2687C15.422 37.3846 15.3782 37.5069 15.31 37.6781L15.3087 37.6768Z" fill="#E6BA3D"/>
<path d="M10.9196 38.197C10.8372 38.1365 10.8449 38.0477 10.8424 37.9614C10.8243 37.1322 10.8076 36.3031 10.787 35.4739C10.7522 34.01 10.7136 32.5474 10.6788 31.0834C10.6557 30.0959 10.6376 29.1084 10.6132 28.1196C10.5784 26.6634 10.5411 25.2072 10.505 23.751C10.4883 23.0943 10.4728 22.439 10.4587 21.7824C10.4548 21.5776 10.487 21.5313 10.6299 21.5197C10.8166 21.5055 10.8642 21.5493 10.8694 21.7566C10.89 22.6077 10.9054 23.4587 10.926 24.3085C10.9608 25.7582 10.9994 27.2067 11.0342 28.6565C11.0574 29.6517 11.0754 30.647 11.0999 31.6422C11.1346 33.0984 11.1732 34.5546 11.2093 36.0108C11.226 36.6597 11.2402 37.3086 11.2557 37.9575C11.2582 38.0451 11.2608 38.1326 11.1823 38.1944C11.0947 38.1944 11.0072 38.1957 10.9196 38.197Z" fill="#E6BA3D"/>
<path d="M65.0909 29.8833C65.1256 28.4773 65.1617 27.0713 65.1952 25.6654C65.2196 24.6341 65.2402 23.6028 65.2634 22.5714C65.2698 22.2908 65.2801 22.0088 65.2917 21.7281C65.2982 21.5453 65.3252 21.5183 65.4887 21.5195C65.6574 21.5195 65.6921 21.553 65.6896 21.7474C65.687 22.0861 65.6793 22.426 65.6715 22.7646C65.6445 23.904 65.6175 25.0435 65.5904 26.1817C65.5557 27.5954 65.5183 29.0078 65.4848 30.4215C65.4604 31.4528 65.4424 32.4841 65.4166 33.5154C65.3806 35.0076 65.3419 36.4999 65.302 37.9921C65.2969 38.1801 65.257 38.22 65.0947 38.2149C64.9467 38.2097 64.9042 38.1724 64.9042 38.0166C64.9042 37.6921 64.9119 37.3677 64.9196 37.0432C64.9454 35.9398 64.9724 34.8364 64.9995 33.7343C65.0304 32.4506 65.0625 31.167 65.0934 29.8846H65.0909V29.8833Z" fill="#E6BA3D"/>
<path d="M61.025 36.8515C60.9619 36.6918 60.9027 36.5283 60.8332 36.3725C60.7881 36.2734 60.8293 36.1884 60.8525 36.1009C61.092 35.1957 61.3353 34.2919 61.5774 33.388C62.6151 29.5061 63.6516 25.6243 64.6893 21.7424C64.6983 21.7076 64.7073 21.6728 64.7176 21.6381C64.7678 21.4823 64.8206 21.4527 64.97 21.4965C65.1065 21.5364 65.1438 21.593 65.1065 21.7372C65.0447 21.9819 64.9764 22.2239 64.9108 22.4672C64.0005 25.8766 63.0902 29.2847 62.1786 32.6941C61.8194 34.0369 61.4602 35.3786 61.101 36.7214C61.0907 36.7614 61.0765 36.8013 61.0636 36.8412C61.0508 36.845 61.0379 36.8476 61.0237 36.8515H61.025Z" fill="#E6BA3D"/>
<path d="M10.138 20.5011C10.1341 20.2281 10.3363 20.0118 10.5989 20.0041C10.8783 19.9964 11.0946 20.2049 11.0972 20.4856C11.1011 20.765 10.8848 20.989 10.6144 20.9865C10.353 20.9852 10.1406 20.7689 10.1367 20.5011H10.138Z" fill="#E6BA3D"/>
<path d="M65.9934 20.4998C65.9895 20.7676 65.7783 20.9839 65.517 20.9865C65.2466 20.989 65.0303 20.765 65.0329 20.4856C65.0354 20.2049 65.2517 19.9964 65.5311 20.0041C65.7951 20.0118 65.9972 20.2281 65.9934 20.4998Z" fill="#E6BA3D"/>
<path d="M37.4131 57.7248C37.3153 57.7196 37.2187 57.7145 37.1208 57.708C37.0307 57.699 36.9406 57.6887 36.8505 57.6797C35.7033 57.5664 34.596 57.287 33.5222 56.8737C31.7004 56.1733 30.0704 55.1549 28.591 53.8892C28.197 53.5519 27.8301 53.1837 27.4554 52.8244C27.391 52.7626 27.3331 52.6777 27.3086 52.5927C27.0472 51.6824 26.997 50.7644 27.2404 49.84C27.2468 49.8142 27.2571 49.7897 27.2726 49.7485C27.3447 49.791 27.4052 49.8258 27.4644 49.8631C29.2631 51.0077 31.148 51.976 33.1656 52.6764C34.0166 52.9725 34.887 53.1991 35.778 53.333C36.3483 53.4193 36.9239 53.4566 37.502 53.4296C37.735 53.4167 37.9667 53.4038 38.1998 53.3922C38.9054 53.3588 39.598 53.2352 40.283 53.0639C42.3559 52.545 44.1636 51.5331 45.7498 50.1116C45.9906 49.8966 46.2224 49.67 46.458 49.4485C47.9953 49.4498 49.5326 49.4511 51.0699 49.4524C50.8394 49.7653 50.6167 50.0846 50.3772 50.391C49.2635 51.8253 48.0403 53.1566 46.6421 54.3193C45.24 55.4845 43.7117 56.4372 41.9864 57.0527C41.313 57.2934 40.6242 57.4724 39.9186 57.5896C39.6933 57.6269 39.4641 57.6501 39.2375 57.6797C39.1332 57.69 39.0302 57.7016 38.926 57.7119C38.8423 57.7157 38.7586 57.7196 38.6749 57.7248C38.2539 57.7248 37.8328 57.7248 37.4131 57.7248Z" fill="#E6BA3D"/>
<path d="M44.6461 35.251C44.3153 36.3956 43.7874 37.4488 43.1655 38.4582C42.3273 39.8191 41.3385 41.068 40.275 42.2564C38.5497 44.1839 36.6583 45.9387 34.6807 47.6035C33.4447 48.6438 32.1881 49.6571 30.8748 50.5996C30.746 50.6923 30.616 50.7811 30.4834 50.8751C29.6053 50.4386 28.7594 49.961 27.9366 49.4434C28.0113 49.4318 28.0873 49.4086 28.162 49.4086C29.125 49.406 30.0868 49.4086 31.0499 49.4061C31.1258 49.4061 31.2018 49.3842 31.2778 49.3726C31.5881 49.3146 31.722 49.2116 31.7567 48.9065C31.7902 48.6155 31.7812 48.3181 31.7657 48.0245C31.7529 47.7773 31.5984 47.6228 31.3653 47.5404C31.0525 47.4297 30.7435 47.3138 30.4319 47.1992C30.0907 47.0743 29.8306 46.8799 29.6516 46.6198C35.3837 42.7792 39.6274 37.6767 42.5436 31.4283C42.8372 31.5919 43.0998 31.803 43.3445 32.0348C44.0371 32.6888 44.4839 33.4807 44.6294 34.427C44.668 34.6806 44.65 34.942 44.6577 35.2008C44.6539 35.2175 44.6513 35.233 44.6474 35.2497L44.6461 35.251Z" fill="#E6BA3D"/>
<path d="M31.376 35.2008C31.3515 34.6149 31.4751 34.0562 31.6927 33.5167C32.0558 32.6167 32.6661 31.9292 33.5146 31.4129C34.054 32.6579 34.6824 33.8463 35.3738 35.0012C36.0626 36.1523 36.8132 37.2621 37.6346 38.3539C36.8209 39.4045 35.9506 40.4088 35.0171 41.368C34.9875 41.3436 34.963 41.3294 34.945 41.3088C33.906 40.0586 32.9584 38.7466 32.2155 37.2956C31.8807 36.6402 31.5923 35.9668 31.394 35.2561C31.3876 35.2381 31.3824 35.2201 31.376 35.2021V35.2008Z" fill="#E6BA3D"/>
<path d="M54.3365 55.3276C54.1228 55.3302 53.9104 55.3328 53.6966 55.3353C53.5795 55.3238 53.461 55.3122 53.3439 55.2993C52.5546 55.2092 51.8143 54.9581 51.0984 54.6246C50.5744 54.3813 50.0787 54.0864 49.6023 53.762C49.3281 53.5753 49.0513 53.3938 48.7551 53.1955C49.8109 52.1037 50.7611 50.9397 51.6469 49.7089C51.7319 49.7514 51.8078 49.7874 51.8838 49.826C52.8752 50.3243 53.8782 50.7942 54.943 51.1187C55.5018 51.2887 56.0696 51.4213 56.6618 51.3968C57.0738 51.3801 57.4575 51.2796 57.7858 51.0144C57.7948 51.0067 57.8129 51.0105 57.8463 51.0067C57.836 51.044 57.8373 51.0801 57.8193 51.1007C57.1112 51.9363 56.2871 52.6032 55.2031 52.8878C55.0782 52.9199 54.9494 52.9354 54.8219 52.9586C54.7331 52.9676 54.6456 52.9779 54.5567 52.9869C54.4576 52.9869 54.3584 52.9869 54.2593 52.9869C54.1576 52.9766 54.0546 52.9663 53.9529 52.956C53.8408 52.9393 53.7288 52.9225 53.6168 52.9058C54.2207 53.3023 54.8799 53.5354 55.5945 53.6062C55.8275 53.6667 56.0618 53.668 56.2949 53.6062C56.9631 53.5457 57.5451 53.2817 58.0614 52.8607C58.0768 52.8775 58.0923 52.8929 58.1077 52.9096C57.4961 53.892 56.6811 54.6414 55.5842 55.0444C55.27 55.1602 54.9314 55.213 54.6044 55.2941C54.5142 55.3044 54.4241 55.3147 54.3353 55.3238L54.3365 55.3276Z" fill="#E6BA3D"/>
<path d="M38.4789 45.04C39.3519 44.1246 40.2107 43.2233 41.0836 42.3079C42.7548 43.9572 44.5767 45.4417 46.5788 46.728C46.5273 46.7808 46.4925 46.8245 46.4513 46.8593C46.0522 47.194 45.6054 47.4258 45.0852 47.5108C44.7569 47.5649 44.605 47.7013 44.5754 48.0284C44.5483 48.3206 44.5483 48.6206 44.578 48.9129C44.6127 49.2489 44.8071 49.3996 45.147 49.4099C45.2809 49.4137 45.4161 49.4099 45.5951 49.4099C45.2809 49.7253 44.9745 49.979 44.6488 50.2378C42.4999 48.6013 40.427 46.885 38.4777 45.0387L38.4789 45.04Z" fill="#E6BA3D"/>
<path d="M51.5681 47.4646C51.1909 47.4054 50.9051 47.1955 50.6746 46.9058C50.421 46.5852 50.242 46.2286 50.184 45.8179C50.1866 45.8127 50.1918 45.8063 50.1905 45.8024C50.1879 45.7908 50.1828 45.7805 50.1789 45.7702C50.1094 45.3222 50.1763 44.8806 50.2497 44.4389C50.3154 44.0437 50.4995 43.6922 50.6604 43.2712C50.981 44.0643 51.1819 44.8419 51.3608 45.6775C52.0072 44.654 52.2003 43.5583 52.2763 42.4008C52.3162 42.4484 52.3497 42.478 52.3716 42.5141C52.6612 43.0149 52.8067 43.5634 52.8685 44.1325C52.9921 45.2681 52.7836 46.3535 52.3432 47.4015C52.3265 47.4414 52.3059 47.4788 52.2827 47.529C52.2196 47.52 52.1578 47.5097 52.096 47.5007C51.9196 47.4891 51.7445 47.4775 51.5681 47.4672V47.4646Z" fill="#E6BA3D"/>
<path d="M35.7754 34.4696C35.1406 33.4164 34.5793 32.3246 34.0797 31.1761C34.4904 31.0061 34.9089 30.9276 35.335 30.8761C35.42 30.8761 35.505 30.8735 35.59 30.8761C35.702 30.8787 35.8153 30.8838 35.9273 30.889C35.9003 32.0387 35.8732 33.1898 35.8462 34.3395C35.8462 34.382 35.841 34.4258 35.8385 34.4683C35.8166 34.4683 35.796 34.4696 35.7741 34.4709L35.7754 34.4696Z" fill="#E6BA3D"/>
<path d="M40.7527 30.8771C41.1608 30.9235 41.56 31.0033 41.9617 31.1578C41.4994 32.2625 40.942 33.308 40.3497 34.3354C40.3394 34.3316 40.3291 34.3316 40.3201 34.3393C40.3085 34.1822 40.2892 34.0251 40.2853 33.8681C40.2583 32.8715 40.2351 31.8737 40.2094 30.8759C40.3896 30.8759 40.5711 30.8759 40.7514 30.8759L40.7527 30.8771Z" fill="#E6BA3D"/>
<path d="M49.4475 41.1247C49.2763 41.5625 49.1128 41.9835 48.9479 42.4032C48.6982 41.6526 48.4059 40.9342 48.0081 40.2209C48.6171 40.3548 49.0522 40.6895 49.4475 41.1247Z" fill="#E6BA3D"/>
</svg>
