<svg width="500" height="71" viewBox="0 0 500 71" fill="none" xmlns="http://www.w3.org/2000/svg">
<path d="M0.528579 31.0501V30.4173L3.13082 29.112L13.5398 4.74652H15.3695L25.6158 28.9933L28.34 30.4173V31.0501H18.2563V30.4173L21.8344 29.0724L18.7849 21.7549H8.90453L5.89569 29.0724L9.31113 30.4173V31.0501H0.528579ZM9.83971 19.5794H17.8904L13.865 9.84902L9.83971 19.5794Z" fill="white"/>
<path d="M28.8876 31.0501V30.4173L31.7745 29.112V10.7983L28.8876 9.53259V8.89972H34.58L48.3637 25.1565V10.7983L44.9076 9.53259V8.89972H53.4462V9.53259L50.6 10.7983V31.2084H49.0143L34.0108 13.6462V28.9933L37.5075 30.4173V31.0501H28.8876ZM35.3932 4.90474C35.8811 3.48078 36.3148 2.426 36.6943 1.74039C37.0738 1.02841 37.4669 0.566946 37.8735 0.355989C38.2801 0.118663 38.7409 0 39.2559 0C39.7709 0 40.2588 0.131848 40.7197 0.395543C41.2076 0.659238 41.6684 0.962488 42.1021 1.30529C42.5358 1.62173 42.9559 1.91179 43.3625 2.17549C43.7963 2.43918 44.2435 2.57103 44.7043 2.57103C45.2194 2.57103 45.6531 2.39963 46.0054 2.05682C46.3849 1.68765 46.7915 1.00204 47.2252 0H47.7538C47.2659 1.42396 46.8322 2.49192 46.4527 3.2039C46.0732 3.88951 45.6802 4.35097 45.2736 4.5883C44.867 4.79926 44.4062 4.90474 43.8911 4.90474C43.3761 4.90474 42.8746 4.77289 42.3867 4.50919C41.9259 4.2455 41.4786 3.95543 41.0449 3.639C40.6112 3.29619 40.1775 2.99294 39.7438 2.72925C39.3372 2.46555 38.9035 2.33371 38.4427 2.33371C37.9277 2.33371 37.4804 2.51829 37.1009 2.88747C36.7485 3.23027 36.3555 3.90269 35.9218 4.90474H35.3932Z" fill="white"/>
<path d="M67.8656 31.4457C65.6428 31.4457 63.6505 30.9578 61.8886 29.9822C60.1537 28.9801 58.7848 27.6221 57.7819 25.9081C56.779 24.1677 56.2775 22.19 56.2775 19.9749C56.2775 17.7599 56.779 15.7822 57.7819 14.0418C58.7848 12.3014 60.1537 10.9434 61.8886 9.96769C63.6505 8.96564 65.6428 8.46462 67.8656 8.46462C70.1154 8.46462 72.1077 8.96564 73.8426 9.96769C75.6045 10.9434 76.9869 12.3014 77.9899 14.0418C79.0199 15.7822 79.535 17.7599 79.535 19.9749C79.535 22.19 79.0199 24.1677 77.9899 25.9081C76.9869 27.6221 75.6045 28.9801 73.8426 29.9822C72.1077 30.9578 70.1154 31.4457 67.8656 31.4457ZM68.5568 29.468C70.888 29.468 72.7176 28.6901 74.0459 27.1343C75.3741 25.5785 76.0382 23.5216 76.0382 20.9638C76.0382 18.8806 75.6723 17.0479 74.9404 15.4657C74.2085 13.8836 73.1785 12.6574 71.8502 11.7872C70.5491 10.8906 69.0447 10.4423 67.337 10.4423C65.0058 10.4423 63.1626 11.2071 61.8072 12.7365C60.4519 14.2659 59.7742 16.3096 59.7742 18.8674C59.7742 20.977 60.1402 22.836 60.872 24.4446C61.631 26.0267 62.6611 27.2661 63.9622 28.1627C65.2904 29.0329 66.822 29.468 68.5568 29.468Z" fill="white"/>
<path d="M91.3117 31.2479L82.4479 10.561L80.1302 9.53259V8.89972H89.1161V9.53259L86.2699 10.6401V10.7588L92.6535 26.0663H92.8568L99.1998 10.7588V10.6401L96.2316 9.53259V8.89972H103.754V9.53259L101.721 10.6006L92.7755 31.2479H91.3117Z" fill="white"/>
<path d="M105.395 31.0501V30.4173L108.282 29.112V10.8379L105.395 9.53259V8.89972H122.757V14.5164H122.106L120.155 10.8774H111.738V18.5905H117.878L119.097 15.9008H119.748V23.2184H119.097L117.878 20.5682H111.738V29.0724H121.09L123.123 24.8006H123.773V31.0501H105.395Z" fill="white"/>
<path d="M126.819 31.0501V30.4173L129.747 29.112V10.8379L126.819 9.53259V8.89972H135.846C138.367 8.89972 140.346 9.40074 141.782 10.4028C143.246 11.4048 143.978 12.776 143.978 14.5164C143.978 15.8085 143.558 16.9161 142.717 17.839C141.904 18.7619 140.766 19.4871 139.302 20.0145L145.604 29.2306L148.288 30.4173V31.0501H142.514L135.927 20.9638H133.162V29.0724L135.846 30.4173V31.0501H126.819ZM135.277 10.8774H133.162V18.9861H135.48C136.944 18.9861 138.109 18.6301 138.977 17.9181C139.871 17.1798 140.318 16.1777 140.318 14.912C140.318 13.5671 139.871 12.5651 138.977 11.9058C138.109 11.2202 136.876 10.8774 135.277 10.8774Z" fill="white"/>
<path d="M154.708 31.0501V30.4173L157.31 29.112L167.719 4.74652H169.548L179.795 28.9933L182.519 30.4173V31.0501H172.435V30.4173L176.013 29.0724L172.964 21.7549H163.084L160.075 29.0724L163.49 30.4173V31.0501H154.708ZM164.019 19.5794H172.069L168.044 9.84902L164.019 19.5794Z" fill="white"/>
<path d="M183.067 31.0501V30.4173L185.953 29.112V10.7983L183.067 9.53259V8.89972H188.759L202.543 25.1565V10.7983L199.087 9.53259V8.89972H207.625V9.53259L204.779 10.7983V31.2084H203.193L188.19 13.6462V28.9933L191.686 30.4173V31.0501H183.067ZM189.572 4.90474C190.06 3.48078 190.494 2.426 190.873 1.74039C191.253 1.02841 191.646 0.566946 192.052 0.355989C192.459 0.118663 192.92 0 193.435 0C193.95 0 194.438 0.131848 194.899 0.395543C195.387 0.659238 195.847 0.962488 196.281 1.30529C196.715 1.62173 197.135 1.91179 197.542 2.17549C197.975 2.43918 198.422 2.57103 198.883 2.57103C199.398 2.57103 199.832 2.39963 200.184 2.05682C200.564 1.68765 200.971 1.00204 201.404 0H201.933C201.445 1.42396 201.011 2.49192 200.632 3.2039C200.252 3.88951 199.859 4.35097 199.453 4.5883C199.046 4.79926 198.585 4.90474 198.07 4.90474C197.555 4.90474 197.054 4.77289 196.566 4.50919C196.105 4.2455 195.658 3.95543 195.224 3.639C194.79 3.29619 194.357 2.99294 193.923 2.72925C193.516 2.46555 193.082 2.33371 192.622 2.33371C192.107 2.33371 191.659 2.51829 191.28 2.88747C190.928 3.23027 190.534 3.90269 190.101 4.90474H189.572Z" fill="white"/>
<path d="M222.045 31.4457C219.822 31.4457 217.829 30.9578 216.068 29.9822C214.333 28.9801 212.964 27.6221 211.961 25.9081C210.958 24.1677 210.456 22.19 210.456 19.9749C210.456 17.7599 210.958 15.7822 211.961 14.0418C212.964 12.3014 214.333 10.9434 216.068 9.96769C217.829 8.96564 219.822 8.46462 222.045 8.46462C224.294 8.46462 226.287 8.96564 228.022 9.96769C229.783 10.9434 231.166 12.3014 232.169 14.0418C233.199 15.7822 233.714 17.7599 233.714 19.9749C233.714 22.19 233.199 24.1677 232.169 25.9081C231.166 27.6221 229.783 28.9801 228.022 29.9822C226.287 30.9578 224.294 31.4457 222.045 31.4457ZM222.736 29.468C225.067 29.468 226.897 28.6901 228.225 27.1343C229.553 25.5785 230.217 23.5216 230.217 20.9638C230.217 18.8806 229.851 17.0479 229.119 15.4657C228.387 13.8836 227.357 12.6574 226.029 11.7872C224.728 10.8906 223.224 10.4423 221.516 10.4423C219.185 10.4423 217.342 11.2071 215.986 12.7365C214.631 14.2659 213.953 16.3096 213.953 18.8674C213.953 20.977 214.319 22.836 215.051 24.4446C215.81 26.0267 216.84 27.2661 218.141 28.1627C219.469 29.0329 221.001 29.468 222.736 29.468Z" fill="white"/>
<path d="M245.491 31.2479L236.627 10.561L234.309 9.53259V8.89972H243.295V9.53259L240.449 10.6401V10.7588L246.833 26.0663H247.036L253.379 10.7588V10.6401L250.411 9.53259V8.89972H257.933V9.53259L255.9 10.6006L246.954 31.2479H245.491Z" fill="white"/>
<path d="M259.574 31.0501V30.4173L262.461 29.112V10.8379L259.574 9.53259V8.89972H276.936V14.5164H276.285L274.334 10.8774H265.917V18.5905H272.057L273.276 15.9008H273.927V23.2184H273.276L272.057 20.5682H265.917V29.0724H275.269L277.302 24.8006H277.952V31.0501H259.574Z" fill="white"/>
<path d="M280.998 31.0501V30.4173L283.926 29.112V10.8379L280.998 9.53259V8.89972H290.025C292.546 8.89972 294.524 9.40074 295.961 10.4028C297.425 11.4048 298.157 12.776 298.157 14.5164C298.157 15.8085 297.737 16.9161 296.896 17.839C296.083 18.7619 294.945 19.4871 293.481 20.0145L299.783 29.2306L302.467 30.4173V31.0501H296.693L290.106 20.9638H287.341V29.0724L290.025 30.4173V31.0501H280.998ZM289.456 10.8774H287.341V18.9861H289.659C291.123 18.9861 292.288 18.6301 293.156 17.9181C294.05 17.1798 294.497 16.1777 294.497 14.912C294.497 13.5671 294.05 12.5651 293.156 11.9058C292.288 11.2202 291.055 10.8774 289.456 10.8774Z" fill="white"/>
<path d="M318.279 31.4457C316.598 31.4457 315.175 31.3006 314.01 31.0106C312.844 30.6941 311.638 30.2327 310.391 29.6262L309.984 23.1393H310.635L312.627 27.332C313.603 28.1231 314.552 28.7032 315.473 29.0724C316.395 29.4152 317.33 29.5866 318.279 29.5866C319.878 29.5866 321.125 29.1779 322.02 28.3604C322.941 27.543 323.402 26.4355 323.402 25.0379C323.402 23.8776 323.131 22.9679 322.589 22.3086C322.074 21.6494 321.315 21.0693 320.312 20.5682C319.336 20.0409 318.171 19.4475 316.815 18.7883C315.541 18.1554 314.457 17.5357 313.562 16.9292C312.668 16.3227 311.99 15.624 311.529 14.8329C311.069 14.0154 310.838 13.0002 310.838 11.7872C310.838 10.8906 311.055 10.0204 311.489 9.1766C311.95 8.30641 312.559 7.5285 313.318 6.8429C314.105 6.13092 314.972 5.57716 315.921 5.18161C316.897 4.7597 317.9 4.54875 318.93 4.54875C320.176 4.54875 321.328 4.69378 322.386 4.98384C323.443 5.27391 324.527 5.68264 325.638 6.21003L326.045 12.5387H325.394L323.524 8.38551C322.575 7.69991 321.749 7.21207 321.044 6.92201C320.339 6.60557 319.526 6.44735 318.604 6.44735C317.412 6.44735 316.422 6.8429 315.636 7.63398C314.877 8.42507 314.498 9.40074 314.498 10.561C314.498 11.9058 314.918 12.9606 315.758 13.7253C316.598 14.4637 317.913 15.2548 319.702 16.0986C321.356 16.8897 322.711 17.628 323.768 18.3136C324.825 18.9729 325.611 19.7376 326.126 20.6078C326.641 21.478 326.899 22.5855 326.899 23.9304C326.899 25.1697 326.628 26.2641 326.086 27.2134C325.544 28.1363 324.839 28.9142 323.971 29.5471C323.131 30.1799 322.196 30.6546 321.166 30.971C320.163 31.2875 319.201 31.4457 318.279 31.4457Z" fill="white"/>
<path d="M328.048 31.0501V30.4173L330.121 29.3889L339.148 8.70195H340.855L349.841 29.3493L352.2 30.4173V31.0501H343.336V30.4173L346.182 29.3097L343.62 23.2975H335.163L332.601 29.3889L335.61 30.4173V31.0501H328.048ZM336.017 21.3198H342.766L339.351 13.3298L336.017 21.3198Z" fill="white"/>
<path d="M353.548 31.0501V30.4173L356.435 29.112V10.7983L353.548 9.53259V8.89972H359.24L373.024 25.1565V10.7983L369.568 9.53259V8.89972H378.106V9.53259L375.26 10.7983V31.2084H373.674L358.671 13.6462V28.9933L362.168 30.4173V31.0501H353.548Z" fill="white"/>
<path d="M388.46 31.0501V30.4173L391.712 28.8351V7.15933L388.46 5.57716V4.94429H400.373C403.355 4.94429 405.903 5.4585 408.017 6.48691C410.131 7.51532 411.731 8.92609 412.815 10.7192C413.926 12.5123 414.482 14.5428 414.482 16.8106C414.482 18.8674 414.116 20.766 413.384 22.5064C412.679 24.2468 411.676 25.7499 410.375 27.0156C409.074 28.2813 407.543 29.2702 405.781 29.9822C404.046 30.6941 402.148 31.0501 400.088 31.0501H388.46ZM399.438 7.11978H395.372V28.8746H400.048C402.216 28.8746 404.087 28.4396 405.659 27.5694C407.258 26.6728 408.478 25.4202 409.318 23.8117C410.186 22.1768 410.619 20.2518 410.619 18.0368C410.619 15.8481 410.186 13.9363 409.318 12.3014C408.451 10.6401 407.177 9.36119 405.496 8.46462C403.843 7.56806 401.823 7.11978 399.438 7.11978Z" fill="white"/>
<path d="M417.751 31.0501V30.4173L420.434 29.112V10.8379L417.751 9.53259V8.89972H426.655V9.53259L423.89 10.8379V29.112L426.655 30.4173V31.0501H417.751Z" fill="white"/>
<path d="M429.72 31.0501V30.4173L432.607 29.112V10.8379L429.72 9.53259V8.89972H447.082V14.5164H446.431L444.479 10.8774H436.063V18.5905H442.203L443.422 15.9008H444.073V23.2184H443.422L442.203 20.5682H436.063V29.0724H445.415L447.448 24.8006H448.098V31.0501H429.72Z" fill="white"/>
<path d="M463.18 31.4457C460.903 31.4457 458.87 30.9842 457.081 30.0613C455.319 29.112 453.923 27.8199 452.893 26.185C451.863 24.55 451.348 22.691 451.348 20.6078C451.348 18.8674 451.673 17.2721 452.323 15.8217C452.974 14.345 453.868 13.0661 455.007 11.985C456.145 10.8774 457.46 10.0204 458.951 9.41393C460.469 8.80743 462.082 8.50418 463.789 8.50418C465.633 8.50418 467.083 8.66239 468.14 8.97883C469.197 9.26889 470.227 9.65125 471.23 10.1259L471.434 15.7426H470.864L468.587 11.9454C467.612 11.2862 466.771 10.8379 466.066 10.6006C465.389 10.3369 464.603 10.205 463.708 10.205C461.919 10.205 460.333 10.5874 458.951 11.3521C457.568 12.0904 456.471 13.1188 455.657 14.4373C454.871 15.7558 454.478 17.2457 454.478 18.907C454.478 21.1484 454.898 23.0602 455.739 24.6423C456.606 26.1981 457.758 27.398 459.195 28.2418C460.632 29.0592 462.231 29.468 463.993 29.468C464.833 29.468 465.633 29.4152 466.392 29.3097C467.178 29.2043 467.977 28.9801 468.791 28.6373V23.1393L465.66 21.7944V21.2407H474.32V21.7944L471.921 23.2579V28.5978C471.217 29.1779 470.363 29.6789 469.36 30.1008C468.384 30.5227 467.354 30.8524 466.27 31.0897C465.185 31.327 464.155 31.4457 463.18 31.4457Z" fill="white"/>
<path d="M488.331 31.4457C486.108 31.4457 484.115 30.9578 482.354 29.9822C480.619 28.9801 479.25 27.6221 478.247 25.9081C477.244 24.1677 476.743 22.19 476.743 19.9749C476.743 17.7599 477.244 15.7822 478.247 14.0418C479.25 12.3014 480.619 10.9434 482.354 9.96769C484.115 8.96564 486.108 8.46462 488.331 8.46462C490.58 8.46462 492.573 8.96564 494.308 9.96769C496.07 10.9434 497.452 12.3014 498.455 14.0418C499.485 15.7822 500 17.7599 500 19.9749C500 22.19 499.485 24.1677 498.455 25.9081C497.452 27.6221 496.07 28.9801 494.308 29.9822C492.573 30.9578 490.58 31.4457 488.331 31.4457ZM489.022 29.468C491.353 29.468 493.183 28.6901 494.511 27.1343C495.839 25.5785 496.503 23.5216 496.503 20.9638C496.503 18.8806 496.137 17.0479 495.405 15.4657C494.674 13.8836 493.644 12.6574 492.315 11.7872C491.014 10.8906 489.51 10.4423 487.802 10.4423C485.471 10.4423 483.628 11.2071 482.272 12.7365C480.917 14.2659 480.239 16.3096 480.239 18.8674C480.239 20.977 480.605 22.836 481.337 24.4446C482.096 26.0267 483.126 27.2661 484.427 28.1627C485.755 29.0329 487.287 29.468 489.022 29.468Z" fill="white"/>
<path d="M7.03417 71C4.91985 71 3.21214 70.4726 1.91102 69.4178C0.637006 68.3367 0 66.9259 0 65.1855C0 64.1307 0.393046 63.0759 1.17914 62.0212C1.96523 60.9664 3.2799 59.872 5.12315 58.7382C4.22863 57.868 3.56452 57.1428 3.13082 56.5627C2.69711 55.9825 2.41249 55.4551 2.27696 54.9805C2.14142 54.5058 2.07366 53.9785 2.07366 53.3983C2.07366 52.6072 2.34472 51.8161 2.88686 51.0251C3.45609 50.2076 4.22863 49.522 5.20447 48.9682C6.20742 48.4145 7.373 48.1376 8.70123 48.1376C10.5987 48.1376 12.076 48.5463 13.1332 49.3638C14.1903 50.1549 14.7189 51.1833 14.7189 52.449C14.7189 53.4774 14.1903 54.4004 13.1332 55.2178C12.1031 56.0089 10.6936 56.9187 8.90453 57.9471C9.06717 58.1053 9.24336 58.2767 9.4331 58.4613C9.64996 58.6459 9.86681 58.8304 10.0837 59.015L15.9387 64.3944C16.6435 63.4187 17.294 62.298 17.8904 61.0323C18.4867 59.7666 19.056 58.369 19.5981 56.8395L15.9794 55.5343V54.9805H24.7212V55.5343L21.5498 56.7604C20.7908 58.4217 20.0318 59.9775 19.2728 61.4278C18.5138 62.8518 17.7142 64.1307 16.8739 65.2646L20.8585 68.9036L23.908 70.1298V70.6836H18.0124L14.8002 67.717C13.7431 68.7718 12.5775 69.5892 11.3035 70.1694C10.0295 70.7231 8.60635 71 7.03417 71ZM5.28579 52.7259C5.28579 53.4642 5.48909 54.1499 5.89569 54.7827C6.3294 55.4156 7.03417 56.1935 8.01001 57.1164C9.12138 56.3517 9.98879 55.6397 10.6122 54.9805C11.2628 54.2949 11.5881 53.4906 11.5881 52.5677C11.5881 51.6711 11.2899 50.9591 10.6936 50.4317C10.1243 49.9044 9.37889 49.6407 8.45727 49.6407C7.58985 49.6407 6.84442 49.9175 6.22097 50.4713C5.59752 50.9987 5.28579 51.7502 5.28579 52.7259ZM3.37477 64.3944C3.37477 65.792 3.87625 66.8863 4.87919 67.6774C5.88214 68.4421 7.07483 68.8245 8.45727 68.8245C10.4361 68.8245 12.2115 68.1521 13.7837 66.8072L8.45727 61.9025C7.96935 61.4542 7.52209 61.0455 7.11549 60.6763C6.70889 60.2808 6.3294 59.9116 5.97701 59.5688C5.19092 60.1226 4.60813 60.6368 4.22863 61.1114C3.87625 61.5861 3.64584 62.0871 3.53741 62.6145C3.42899 63.1155 3.37477 63.7088 3.37477 64.3944Z" fill="white"/>
<path d="M32.6471 70.6045V69.9716L35.8999 68.3894V46.7136L32.6471 45.1315V44.4986H43.2187C46.4172 44.4986 48.9788 45.0655 50.9034 46.1994C52.8551 47.3333 53.8309 49.1265 53.8309 51.5788C53.8309 53.0291 53.3159 54.3213 52.2858 55.4551C51.2829 56.5627 49.9004 57.4461 48.1385 58.1053C46.4037 58.7645 44.4385 59.0941 42.2428 59.0941H39.5593V68.3894L43.2187 69.9716V70.6045H32.6471ZM39.5593 46.6741V56.9187H43.0154C45.1568 56.9187 46.8374 56.4572 48.0572 55.5343C49.277 54.585 49.8869 53.372 49.8869 51.8953C49.8869 50.0494 49.2634 48.7177 48.0165 47.9003C46.7967 47.0828 45.0348 46.6741 42.7307 46.6741H39.5593Z" fill="white"/>
<path d="M56.1361 70.6045V69.9716L59.0636 68.6663V50.3922L56.1361 49.0869V48.454H65.1626C67.6835 48.454 69.6623 48.9551 71.099 49.9571C72.5627 50.9591 73.2946 52.3304 73.2946 54.0707C73.2946 55.3629 72.8745 56.4704 72.0342 57.3933C71.221 58.3162 70.0825 59.0414 68.6187 59.5688L74.921 68.785L77.6046 69.9716V70.6045H71.8309L65.244 60.5181H62.4791V68.6267L65.1626 69.9716V70.6045H56.1361ZM64.5934 50.4317H62.4791V58.5404H64.7967C66.2604 58.5404 67.426 58.1844 68.2934 57.4724C69.188 56.7341 69.6352 55.732 69.6352 54.4663C69.6352 53.1214 69.188 52.1194 68.2934 51.4602C67.426 50.7746 66.1927 50.4317 64.5934 50.4317Z" fill="white"/>
<path d="M77.8034 70.6045V69.9716L80.487 68.6663V50.3922L77.8034 49.0869V48.454H86.7079V49.0869L83.9431 50.3922V68.6663L86.7079 69.9716V70.6045H77.8034Z" fill="white"/>
<path d="M89.5694 70.6045V69.9716L92.4562 68.6663L93.2288 50.3922L90.098 49.0869V48.454H97.3761L105.101 65.2251L113.152 48.454H120.064V49.0869L117.056 50.1944L117.625 68.6663L120.227 69.9716V70.6045H111.404V69.9716L114.087 68.7058L113.721 52.1721L104.817 70.7627H103.76L95.2618 52.1721L94.8552 68.7058L97.8234 69.9716V70.6045H89.5694Z" fill="white"/>
<path d="M121.57 70.6045V69.9716L123.643 68.9432L132.67 48.2563H134.378L143.363 68.9036L145.722 69.9716V70.6045H136.858V69.9716L139.704 68.8641L137.142 62.8518H128.685L126.124 68.9432L129.132 69.9716V70.6045H121.57ZM129.539 60.8741H136.289L132.873 52.8841L129.539 60.8741Z" fill="white"/>
<path d="M153.979 70.8022L145.115 50.1153L142.797 49.0869V48.454H151.783V49.0869L148.937 50.1944V50.3131L155.321 65.6206H155.524L161.867 50.3131V50.1944L158.899 49.0869V48.454H166.421V49.0869L164.388 50.1549L155.443 70.8022H153.979Z" fill="white"/>
<path d="M168.062 70.6045V69.9716L170.949 68.6663V50.3922L168.062 49.0869V48.454H185.424V54.0707H184.773L182.822 50.4317H174.405V58.1448H180.545L181.765 55.4551H182.415V62.7727H181.765L180.545 60.1226H174.405V68.6267H183.757L185.79 64.3549H186.44V70.6045H168.062Z" fill="white"/>
<path d="M189.486 70.6045V69.9716L192.414 68.6663V50.3922L189.486 49.0869V48.454H198.513C201.034 48.454 203.013 48.9551 204.449 49.9571C205.913 50.9591 206.645 52.3304 206.645 54.0707C206.645 55.3629 206.225 56.4704 205.384 57.3933C204.571 58.3162 203.433 59.0414 201.969 59.5688L208.271 68.785L210.955 69.9716V70.6045H205.181L198.594 60.5181H195.829V68.6267L198.513 69.9716V70.6045H189.486ZM197.944 50.4317H195.829V58.5404H198.147C199.611 58.5404 200.776 58.1844 201.644 57.4724C202.538 56.7341 202.986 55.732 202.986 54.4663C202.986 53.1214 202.538 52.1194 201.644 51.4602C200.776 50.7746 199.543 50.4317 197.944 50.4317Z" fill="white"/>
<path d="M209.649 70.6045V69.9716L211.723 68.9432L220.749 48.2563H222.457L231.443 68.9036L233.801 69.9716V70.6045H224.937V69.9716L227.784 68.8641L225.222 62.8518H216.765L214.203 68.9432L217.212 69.9716V70.6045H209.649ZM217.619 60.8741H224.368L220.953 52.8841L217.619 60.8741Z" fill="white"/>
<path d="M243.078 70.6045V69.9716L246.331 68.3894V46.7136L243.078 45.1315V44.4986H253.65V45.1315L249.99 46.7136V68.429H259.871L262.636 61.8234H263.286V70.6045H243.078Z" fill="white"/>
<path d="M264.631 70.6045V69.9716L266.704 68.9432L275.731 48.2563H277.439L286.424 68.9036L288.783 69.9716V70.6045H279.919V69.9716L282.765 68.8641L280.203 62.8518H271.746L269.185 68.9432L272.193 69.9716V70.6045H264.631ZM272.6 60.8741H279.35L275.934 52.8841L272.6 60.8741Z" fill="white"/>
<path d="M295.903 70.7627L289.397 50.234L286.673 49.0869V48.454H296.106V49.0869L293.057 50.1944L297.489 64.6713H297.733L304.32 48.2958H305.824L312.045 64.6713H312.248L316.396 50.2735L313.346 49.0869V48.454H321.356V49.0869L318.957 50.234L312.533 70.7627H310.825L304.401 54.3476H304.198L297.57 70.7627H295.903Z" fill="white"/>
<path d="M343.63 71C341.678 71 339.876 70.6704 338.222 70.0111C336.596 69.3255 335.173 68.3894 333.953 67.2028C332.733 65.9898 331.785 64.5658 331.107 62.9309C330.429 61.296 330.09 59.5029 330.09 57.5515C330.09 55.6002 330.429 53.8071 331.107 52.1721C331.785 50.5372 332.733 49.1265 333.953 47.9398C335.173 46.7268 336.596 45.7907 338.222 45.1315C339.876 44.4459 341.678 44.1031 343.63 44.1031C345.582 44.1031 347.384 44.4459 349.038 45.1315C350.691 45.7907 352.128 46.7268 353.348 47.9398C354.568 49.1265 355.516 50.5372 356.194 52.1721C356.872 53.8071 357.211 55.6002 357.211 57.5515C357.211 59.5029 356.872 61.296 356.194 62.9309C355.516 64.5658 354.568 65.9898 353.348 67.2028C352.128 68.3894 350.691 69.3255 349.038 70.0111C347.384 70.6704 345.582 71 343.63 71ZM344.484 69.0223C346.219 69.0223 347.737 68.6004 349.038 67.7565C350.366 66.9127 351.396 65.7261 352.128 64.1967C352.887 62.6672 353.267 60.8609 353.267 58.7777C353.267 56.2199 352.806 53.9916 351.884 52.093C350.962 50.1681 349.716 48.6782 348.143 47.6234C346.598 46.5686 344.863 46.0412 342.939 46.0412C341.204 46.0412 339.659 46.4631 338.304 47.307C336.975 48.1244 335.932 49.2979 335.173 50.8273C334.414 52.3567 334.034 54.163 334.034 56.2462C334.034 58.8041 334.495 61.0455 335.417 62.9705C336.366 64.8954 337.626 66.3853 339.198 67.4401C340.77 68.4949 342.532 69.0223 344.484 69.0223Z" fill="white"/>
<path d="M360.245 70.6045V69.9716L363.173 68.6663V50.3922L360.286 49.0869V48.454H377.567V54.0707H376.916L375.086 50.4713H366.629V58.1448H372.728L373.948 55.4551H374.598V62.7727H373.948L372.728 60.1226H366.629V68.6663L370.004 69.9716V70.6045H360.245Z" fill="white"/>
<path d="M380.598 70.6045V69.9716L383.525 68.6663V50.3922L380.638 49.0869V48.454H397.919V54.0707H397.268L395.439 50.4713H386.981V58.1448H393.08L394.3 55.4551H394.951V62.7727H394.3L393.08 60.1226H386.981V68.6663L390.356 69.9716V70.6045H380.598Z" fill="white"/>
<path d="M401.153 70.6045V69.9716L403.837 68.6663V50.3922L401.153 49.0869V48.454H410.058V49.0869L407.293 50.3922V68.6663L410.058 69.9716V70.6045H401.153Z" fill="white"/>
<path d="M425.402 71C423.071 71 420.997 70.5253 419.181 69.576C417.365 68.6267 415.928 67.3346 414.871 65.6997C413.841 64.0384 413.326 62.1662 413.326 60.083C413.326 58.3426 413.665 56.7341 414.342 55.2574C415.02 53.7807 415.942 52.5018 417.107 51.4206C418.273 50.3395 419.614 49.5088 421.132 48.9287C422.65 48.3222 424.263 48.0189 425.971 48.0189C427.733 48.0189 429.115 48.1903 430.118 48.5331C431.148 48.8496 432.151 49.2319 433.127 49.6802L433.249 55.1783H432.599L430.484 51.4206C429.752 50.8932 429.02 50.524 428.289 50.3131C427.557 50.1021 426.757 49.9967 425.89 49.9967C424.128 49.9967 422.556 50.4054 421.173 51.2228C419.818 52.0403 418.747 53.161 417.961 54.585C417.175 55.9825 416.782 57.5515 416.782 59.2919C416.782 62.4299 417.609 64.8427 419.262 66.5304C420.943 68.1916 423.179 69.0223 425.971 69.0223C426.865 69.0223 427.652 68.9564 428.329 68.8245C429.007 68.6927 429.657 68.4685 430.281 68.1521L433.005 64.078H433.656L433.33 69.2992C432.327 69.8002 431.203 70.2089 429.956 70.5253C428.736 70.8418 427.218 71 425.402 71Z" fill="white"/>
<path d="M437.604 70.6045V69.9716L440.491 68.6663V50.3922L437.604 49.0869V48.454H454.966V54.0707H454.315L452.364 50.4317H443.947V58.1448H450.087L451.307 55.4551H451.957V62.7727H451.307L450.087 60.1226H443.947V68.6267H453.299L455.332 64.3549H455.982V70.6045H437.604Z" fill="white"/>
<path d="M466.103 71C464.667 71 463.42 70.855 462.363 70.5649C461.333 70.2748 460.275 69.8793 459.191 69.3783L458.825 64.0384H459.476L461.387 67.5983C462.173 68.1785 462.972 68.5872 463.786 68.8245C464.626 69.0355 465.48 69.1409 466.347 69.1409C467.892 69.1409 469.071 68.8377 469.885 68.2312C470.725 67.5983 471.145 66.649 471.145 65.3833C471.145 64.434 470.888 63.7088 470.373 63.2078C469.858 62.6804 469.099 62.2058 468.096 61.7838C467.12 61.3356 465.914 60.7818 464.477 60.1226C462.769 59.3315 461.536 58.5272 460.777 57.7097C460.045 56.8923 459.679 55.7584 459.679 54.3081C459.679 53.2006 460.018 52.1721 460.695 51.2228C461.373 50.2735 462.254 49.5088 463.338 48.9287C464.45 48.3222 465.67 48.0189 466.998 48.0189C468.109 48.0189 469.139 48.164 470.088 48.454C471.037 48.7177 471.972 49.0605 472.893 49.4824L473.178 54.6245H472.528L470.982 51.3811C470.332 50.8537 469.708 50.4713 469.112 50.234C468.516 49.9967 467.825 49.878 467.038 49.878C465.683 49.878 464.612 50.2076 463.826 50.8668C463.067 51.5261 462.688 52.3963 462.688 53.4774C462.688 54.1894 462.864 54.7827 463.216 55.2574C463.569 55.732 464.111 56.1803 464.843 56.6022C465.602 56.9978 466.578 57.4724 467.77 58.0262C469.315 58.7382 470.549 59.3974 471.47 60.0039C472.392 60.584 473.056 61.2433 473.463 61.9816C473.896 62.72 474.113 63.6561 474.113 64.79C474.113 66.003 473.761 67.0841 473.056 68.0334C472.378 68.9564 471.43 69.6815 470.21 70.2089C469.017 70.7363 467.648 71 466.103 71Z" fill="white"/>
</svg>
